<?xml version="1.0" standalone="no"?>
<!DOCTYPE svg PUBLIC "-//W3C//DTD SVG 1.1//EN" "http://www.w3.org/Graphics/SVG/1.1/DTD/svg11.dtd" >
<svg xmlns="http://www.w3.org/2000/svg" xmlns:xlink="http://www.w3.org/1999/xlink" version="1.1">
<metadata></metadata>
<defs>
<font id="aye_mateyregular" horiz-adv-x="370" >
<font-face units-per-em="2048" ascent="1638" descent="-410" />
<missing-glyph horiz-adv-x="409" />
<glyph horiz-adv-x="0" />
<glyph horiz-adv-x="0" />
<glyph unicode="&#xd;" horiz-adv-x="512" />
<glyph unicode=" "  horiz-adv-x="409" />
<glyph unicode="&#x09;" horiz-adv-x="409" />
<glyph unicode="&#xa0;" horiz-adv-x="409" />
<glyph unicode="!" horiz-adv-x="352" d="M102 418l13 977q0 25 17.5 38t37.5 13t36.5 -13.5t16.5 -37.5h-2l-12 -977q0 -25 -17.5 -38t-38 -13t-36 13t-15.5 38zM113 50.5q0 25.5 16 48t51 22.5v-2q33 0 50.5 -21.5t17.5 -48t-17.5 -48t-50.5 -21.5q-35 0 -51 22.5t-16 48z" />
<glyph unicode="&#x22;" horiz-adv-x="522" d="M102 1245q0 4 2 16.5t25 24.5t28 28.5t5 26.5q0 15 -8 29q-8 12 -9 25q0 8 5.5 21.5t21.5 22.5t33 9q4 0 16 -1t25 -24q18 -29 20 -50t2 -30q0 -25 -7 -52t-26.5 -54t-50.5 -41q-14 -8 -26 -8q-8 0 -22.5 6t-24 21.5t-9.5 29.5zM252 1245q0 4 2 16.5t25 24.5t27.5 28.5 t4.5 26.5q0 15 -8 29q-8 12 -8 25q0 8 5 21.5t20.5 22.5t31.5 9q4 0 16.5 -1t24.5 -24q18 -29 20.5 -50t2.5 -30q0 -25 -7.5 -52t-27 -54t-49.5 -41q-14 -8 -27 -8q-8 0 -21.5 6t-22.5 21.5t-9 29.5z" />
<glyph unicode="#" horiz-adv-x="1024" d="M102 886.5q0 20.5 13.5 37t38.5 16.5h145q4 49 6 97t6 98q2 25 19.5 38t38 13t35 -11.5t14.5 -31.5v-6q-4 -49 -6 -97.5t-6 -97.5h215q0 47 -1.5 92t-1.5 92q0 25 16.5 38.5t37 13.5t37 -13.5t16.5 -38.5q0 -47 1 -92t1 -92h141q25 0 38.5 -16.5t13.5 -37t-13.5 -36.5 t-38.5 -16h-141q0 -59 1 -116.5t1 -117.5h139l4 -2q25 0 38.5 -16.5t13.5 -37t-13.5 -36.5t-38.5 -16h-137v-95q0 -49 2 -96q0 -27 -16 -40t-36.5 -13t-37 13t-16.5 40q-2 47 -2 96v95h-232l6 -191q0 -27 -16 -39t-35.5 -12t-37 13.5t-17.5 37.5l-6 191h-135q-25 0 -38.5 16 t-13.5 36.5t13.5 37t38.5 16.5h135q0 59 1 116.5t3 117.5h-141q-25 0 -38.5 16t-13.5 36.5zM395 602h230q-2 59 -2 117v117h-224q-2 -59 -3 -116.5t-1 -117.5z" />
<glyph unicode="$" horiz-adv-x="913" d="M96 256q0 18 17 33q29 27 58.5 50t59.5 46q12 8 25 8q8 0 22.5 -5t24.5 -21q8 -12 8 -27q0 -6 -5 -20.5t-23 -26.5l-23 -14q23 -41 58.5 -91.5t78.5 -76.5q4 156 5 310t4 310q-16 -2 -35 -3t-37 -3h-6q-20 0 -31.5 14.5t-11.5 34t13 37.5t38 20q6 0 10 3q-23 27 -42 54 t-36 58q-31 53 -43 107.5t-12 99.5q0 16 3 55t30.5 93.5t83.5 95.5q43 31 86 43q2 29 2 55.5t2 52.5q0 25 16.5 38t37 13t36.5 -13t16 -38q-2 -18 -2 -37v-26q0 -18 -2 -37q98 -12 178 -92l7 4l4 4l2 4l4 4q16 16 35 17q2 0 13 -1.5t28 -17.5q16 -16 16 -36.5t-16 -37.5 q-18 -20 -35 -36l-10 -13q-18 -16 -37 -37q-14 -16 -33 -16q-2 0 -13.5 1t-27.5 15q-16 16 -16 36t14 36q-45 51 -107 61l-6 -491l68 6h6q20 0 32.5 -14.5t12.5 -35t-13.5 -37.5t-37.5 -19h-4l-4 -2h-4q55 -74 95 -155t54 -179q4 -29 4 -64q0 -29 -5 -78t-30.5 -110.5 t-69.5 -108.5t-110 -59q-4 -2 -10 -2v-39l-2 -27v-39q0 -25 -17.5 -38t-38 -13t-36 13.5t-15.5 37.5v41l2 27v41q-72 23 -126 81t-93 128q-12 -8 -26 -8q-6 0 -18.5 3t-25 17t-13.5 24.5t-1 12.5zM317 1145q0 -53 25 -107.5t72 -107.5l6 393h-4q-35 -18 -61.5 -53t-35.5 -86 q-2 -20 -2 -39zM512 109q18 10 33 24q66 72 75 131.5t9 87.5q0 61 -21 125q-31 94 -90 166q-2 -135 -2 -268q-2 -131 -4 -266z" />
<glyph unicode="%" horiz-adv-x="876" d="M96 1255v9q0 8 2 12v-2q12 78 61.5 104.5t88.5 26.5q31 0 65 -12q33 -12 59.5 -35t44 -53.5t20.5 -53t3 -32.5q0 -25 -8 -50q-23 -59 -72 -81.5t-90 -22.5q-18 0 -37 4q-70 16 -103.5 70.5t-33.5 115.5zM131 45q0 12 8 27q100 170 175 352t141 373h-45q-25 0 -38.5 16 t-13.5 36.5t13.5 37t38.5 16.5h84l-7 2q43 129 84 255t82 251q8 25 24.5 31t27.5 6q10 0 23 -4t22.5 -17.5t9.5 -25.5q0 -8 -4 -19q-41 -119 -79 -238.5t-77 -240.5h43q27 0 39 -16.5t12 -37t-12 -36.5t-39 -16h-76q-68 -205 -147.5 -400.5t-188.5 -378.5q-12 -23 -25 -24.5 t-18 -1.5q-16 0 -31.5 9t-20.5 22.5t-5 21.5zM203 1255q0 -27 11 -50t42 -29v-2q8 -2 16 -3q12 0 28.5 4.5t27.5 20.5q8 14 8 29q0 14 -12.5 33.5t-36 32t-41.5 12.5q-8 0 -24.5 -3.5t-18.5 -35.5v-9zM422 176v8v4l2 5v4q12 80 62.5 106.5t88.5 26.5q31 0 66 -13 q33 -12 59.5 -34.5t44 -53t20.5 -53t3 -31.5q0 -27 -10 -53q-10 -31 -30.5 -52.5t-48.5 -34.5t-49.5 -16t-33.5 -3q-18 0 -37 4q-70 16 -103.5 69.5t-33.5 116.5zM528 178q0 -27 11.5 -50.5t42.5 -29.5l2 -2q8 -2 16 -2q12 0 28.5 4t26.5 21q8 14 9 28q0 14 -12.5 34t-36 32 t-44.5 12q-8 0 -24.5 -3t-18.5 -36v-8z" />
<glyph unicode="&#x26;" horiz-adv-x="1335" d="M102 379.5q0 19.5 13.5 37t38.5 19.5q10 2 18 2l35 2q10 2 18 2q35 78 79 147.5t83 121.5l62 80q-66 76 -120.5 157.5t-70.5 177.5q-4 25 -4 48q0 25 6 60.5t27.5 78.5t56.5 77.5t80 53.5q45 18 72.5 19t29.5 1q49 0 94.5 -14t85 -45t62.5 -78q27 -57 29 -89t2 -44 q0 -39 -12.5 -84t-40 -92t-62.5 -96q-23 -31 -48.5 -62t-51.5 -61q39 -47 76.5 -95.5t74.5 -95.5q37 -49 73 -99t71 -101q47 47 93 94t95 90q-2 4 -4 6l-4 10q-2 4 -4 6q-8 14 -8 27q0 8 6 22.5t21.5 22.5t29.5 8q4 0 16.5 -2t24.5 -24q14 -29 30.5 -56.5t38.5 -52.5 q14 -16 15.5 -28.5t1.5 -14.5q0 -18 -14 -33q-14 -14 -26.5 -15t-14.5 -1q-20 0 -35 16h2q-8 12 -13 17q-47 -43 -92 -89t-90 -94q35 -47 68 -95t67 -97q12 16 19 22q16 16 35 17q2 0 13 -1t24.5 -14.5t15.5 -25.5t2 -17q0 -16 -14 -32l-117 -123q-14 -16 -33 -17 q-2 0 -13 1.5t-25.5 15.5t-16.5 26.5t-2 14.5q0 18 16 35l10 10q6 6 11 12l-136 197q-35 -35 -68.5 -68t-72.5 -63q-35 -29 -81 -58.5t-96 -50t-84 -26t-50 -5.5q-35 0 -68 13q-68 25 -106.5 60.5t-56 79.5t-17.5 93q0 2 1 30t15 81h-17t-17 -2h-7q-20 0 -32.5 15 t-12.5 34.5zM274 233q0 -16 3.5 -39.5t19.5 -50t49 -43.5h-4q33 -18 68.5 -18t71.5 10t69 27.5t61 38.5q53 37 100.5 79t94.5 89q-111 156 -227 307l-62 74q-51 -63 -98 -128t-82 -137q12 2 22 2h17q10 0 22 2h7q20 0 32.5 -15t12.5 -34.5t-13.5 -37t-38.5 -19.5 q-27 -2 -53.5 -3t-54.5 -3q-10 -33 -13.5 -58.5t-3.5 -42.5zM358 1180q0 -25 7 -54q20 -74 63 -134t90 -118q37 45 74 99q18 25 38.5 53.5t38 59t22.5 54t5 40.5q0 18 -4 37l2 2q-14 57 -48 88.5t-63.5 38t-45.5 6.5q-25 0 -60 -10.5t-66.5 -40t-42 -63.5t-10.5 -58z" />
<glyph unicode="'" d="M102 1245q0 4 2 16.5t25 24.5h2q23 12 28 28.5t5 24.5q0 16 -10 31q-8 12 -9 25q0 8 5.5 21.5t21.5 22.5t33 9q4 0 16 -1t25 -24q16 -29 19 -51t3 -33q0 -23 -8 -49t-27.5 -53t-50.5 -41q-14 -8 -26 -8q-8 0 -22.5 6t-23 21.5t-8.5 29.5z" />
<glyph unicode="(" horiz-adv-x="632" d="M102 831.5q0 20.5 13.5 37t40.5 16.5h14q23 150 88 286q66 137 193 236q14 10 28 10q4 0 16.5 -4t21.5 -20.5t9 -32.5q0 -4 -1 -17.5t-21 -27.5q-102 -78 -155.5 -191.5t-74.5 -238.5h37q27 0 39 -16.5t12 -37t-12 -37t-39 -16.5h-43q-2 -23 -2 -45v-47q0 -88 11.5 -175 t38 -170t70.5 -157.5t110 -136.5q16 -16 16 -35q0 -2 -1 -13t-14.5 -24.5t-25.5 -15.5t-14 -2q-18 0 -35 16q-78 74 -131 165t-84 191.5t-40 188.5t-9 156q0 37 2 74v8l2 14v8h-6q-27 0 -40.5 16.5t-13.5 37z" />
<glyph unicode=")" horiz-adv-x="632" d="M102 1360q0 16 9.5 32.5t21.5 20.5t17 4q14 0 28 -10q127 -96 194.5 -232.5t90.5 -289.5h12q25 0 38 -16.5t13 -37t-13 -37t-38 -16.5h-6v-16l2 -29v-16q0 -102 -11 -203.5t-42 -198t-82 -183.5t-129 -159q-16 -16 -35 -16q-2 0 -14.5 2t-25.5 15.5t-14 24.5t-1 13 q0 18 16 35q68 63 114 142t73.5 166t36 171t8.5 158v33q0 16 -1.5 30.5t-3.5 30.5h-43q-25 0 -38 16.5t-13 37t13.5 37t37.5 16.5h35q-20 125 -72.5 238.5t-154.5 191.5q-20 14 -21.5 27.5t-1.5 17.5z" />
<glyph unicode="*" horiz-adv-x="536" d="M102 1087q0 16 13 33q16 18 34.5 38t34.5 42h-6l-10 -2h-6h-6q-20 0 -31.5 15.5t-11.5 35t13 37t38 19.5l61 6q-2 23 -5 46t-5 40q0 27 15.5 39t36 12t38 -13.5t17.5 -37.5q2 -16 4 -37t4 -43q14 2 26.5 3t24.5 3h6q20 0 32.5 -15.5t12.5 -35t-13 -36.5t-38 -19h-4 l-10 -3h-5q16 -25 31 -48t31 -46q10 -14 10 -28q0 -6 -5 -18.5t-21.5 -23t-32.5 -10.5q-4 0 -16.5 1t-26.5 24l-56 86q-23 -29 -44 -54.5t-42 -52.5q-14 -18 -32 -18q-2 0 -12.5 1t-25 15.5t-16.5 27.5t-2 17z" />
<glyph unicode="+" horiz-adv-x="688" d="M100 709.5q0 19.5 13.5 37t38.5 19.5q27 2 51 4l33 2q25 0 51 2l-6 270q0 25 16 38.5t36.5 13.5t37 -13.5t16.5 -38.5l6 -264q27 2 53 4l35 2q27 0 54 2l-3 -2h7q20 0 32.5 -15t12.5 -34.5t-13.5 -37t-38.5 -19.5q-27 -2 -53 -2l-35 -2q-27 -2 -53 -4q0 -68 1 -135.5 t3 -137.5q0 -25 -16.5 -38t-35.5 -13t-36.5 13.5t-17.5 37.5q-2 68 -3 134.5t-1 134.5q-27 -2 -52 -2l-32 -2q-25 -2 -51 -5h-7q-20 0 -31.5 15.5t-11.5 35z" />
<glyph unicode="," d="M102 -115q0 4 2 16.5t25 24.5q23 10 29 27.5t6 26.5q0 14 -8 28l2 -2q-8 14 -8 27q0 8 5 21.5t19 22.5t31 9q4 0 17.5 -2t25.5 -23q16 -29 19 -51t3 -33q0 -23 -8 -48t-27.5 -52t-50.5 -41q-14 -8 -26 -8q-8 0 -22.5 6t-24 21.5t-9.5 29.5z" />
<glyph unicode="-" horiz-adv-x="710" d="M102 450.5q0 20.5 13.5 37t38.5 16.5h403q25 0 38 -16.5t13 -37t-13 -37t-38 -16.5h-403q-25 0 -38.5 16.5t-13.5 37z" />
<glyph unicode="." horiz-adv-x="339" d="M102 36.5q0 26.5 16.5 48t51.5 21.5q33 0 50.5 -21.5t17.5 -48t-17.5 -48t-50.5 -21.5q-35 0 -51.5 21.5t-16.5 48z" />
<glyph unicode="/" horiz-adv-x="600" d="M102 14q0 7 2 15q74 338 147 670.5t146 670.5q6 25 21.5 31t25.5 6q8 0 21.5 -3t25 -17.5t11.5 -30.5q0 -6 -2 -15q-74 -338 -146.5 -670.5t-146.5 -670.5q-6 -25 -21.5 -31t-25.5 -6q-8 0 -21.5 3t-25 17.5t-11.5 30.5z" />
<glyph unicode="0" horiz-adv-x="1032" d="M102 846q0 23 15.5 37t38.5 16q10 2 18 3t19 1q6 98 18 196.5t57 188.5l6 12q4 8 9 13q51 70 116.5 98.5t122.5 28.5q16 0 61.5 -6.5t108 -54.5t94.5 -134q29 -78 41.5 -164t14.5 -172h37v-4q25 0 38 -16.5t13 -37t-13.5 -36.5t-37.5 -16h-37l-6 -92q-8 -123 -24.5 -250 t-59.5 -244q-35 -94 -107 -151.5t-158 -57.5q-14 0 -28 2q-49 6 -91 30.5t-76 61.5t-56.5 82t-30.5 92q-27 129 -28 203t-1 88q0 117 8 234q-8 -2 -15 -2t-13 -2h-4q-20 0 -35 16t-15 37zM285 623q0 -59 4 -121q2 -43 4 -92.5t11 -97.5t28.5 -90t56.5 -70q51 -41 97 -41 t83 26.5t63.5 70.5t39.5 93l-2 4q31 121 46 246t17 250h-22q-27 0 -40.5 16.5t-13.5 36.5t13.5 36.5t40.5 16.5h18q-2 29 -3 58.5t-5 58.5q-4 39 -10 83t-21.5 85t-40 74.5t-65.5 52.5q-37 16 -72 16q-27 0 -69 -15t-81 -75q-41 -78 -51 -165t-14 -173q18 -4 30.5 -19.5 t12.5 -33.5q0 -23 -14.5 -35t-34.5 -16q-4 -76 -5 -121t-1 -59zM457 1014q0 25 16 38t36.5 13t37 -13.5t16.5 -37.5q0 -156 1 -311.5t1 -313.5q0 -25 -16.5 -38t-36.5 -13t-36.5 13.5t-16.5 37.5q0 158 -1 313.5t-1 311.5z" />
<glyph unicode="1" horiz-adv-x="489" d="M100 1303q0 16 15 32l104 111q12 12 21.5 14t15.5 2q8 0 20.5 -5t22.5 -18.5t10 -29.5l6 -491h23q25 0 38 -16.5t13 -36t-13.5 -37t-37.5 -17.5h-21l7 -713h12q25 0 38 -16t13 -36.5t-13.5 -37t-37.5 -16.5h-139q-25 0 -38.5 16.5t-13.5 37t13.5 36.5t38.5 16h18l-6 707 h-19h-6q-20 0 -32.5 15.5t-12.5 34.5t13.5 36.5t37.5 19.5h17q-2 92 -3 181.5t-1 181.5l-13 -12q-18 -18 -36 -19l-12 1q-11 1 -24.5 15.5t-15.5 26.5t-2 17z" />
<glyph unicode="2" horiz-adv-x="862" d="M104 1243q0 12 7 25q10 18 25.5 22t23.5 4q12 0 24 -6q4 -4 13 -8q25 39 57.5 77t71.5 63.5t68.5 31.5t45.5 6q31 0 64 -12q47 -18 87 -49t69.5 -71t44 -85t14.5 -90v-12q-2 -51 -11.5 -100.5t-25.5 -96.5q20 -4 30.5 -20.5t10.5 -32.5q0 -2 -1 -13.5t-12.5 -24.5 t-31.5 -13h-6q-20 0 -31 2q-31 -66 -66.5 -129.5t-70.5 -126.5q-68 -119 -132.5 -238t-115.5 -246h391q2 18 3 36t5 36l-2 -2q4 25 19.5 31t25.5 6q8 0 21.5 -3t25 -18.5t11.5 -33.5v-11q-8 -33 -8 -65q0 -14 2 -27v-6q0 -18 -14.5 -32.5t-37.5 -14.5q-131 0 -217 1t-129 1 q-86 0 -174 -2q-25 0 -40 17.5t-15 33.5q0 8 4 16q68 188 165 359.5t191 347.5l21 37q10 18 20 41q-2 0 -3 1t-3 1q-25 2 -38 19.5t-13 37t12.5 34.5t32.5 15h6l55 -6q29 74 34 119t5 61q0 57 -26 109q-14 27 -37 53.5t-50.5 43t-45 18.5t-21.5 2q-27 0 -55 -21 q-31 -23 -53.5 -50.5t-40.5 -57.5q2 0 2 -1t2 -1q18 -12 22 -26.5t4 -20.5q0 -14 -6 -27q-10 -18 -25.5 -23.5t-23.5 -5.5q-12 0 -25 8l-104 68q-18 10 -21.5 23.5t-3.5 21.5z" />
<glyph unicode="3" horiz-adv-x="946" d="M102 1214q0 12 9 25q10 16 25.5 21.5t23.5 5.5q12 0 22 -9q8 -4 11 -8q35 78 104.5 124t148.5 46h15q41 -4 83 -15t77.5 -32.5t63.5 -53.5t38 -75q6 -31 6 -63q0 -25 -6 -65t-31.5 -91t-66.5 -94t-90 -74q55 -31 99 -75t74.5 -98t47 -116.5t16.5 -126.5h21v-2 q25 0 38 -16t13 -36.5t-13.5 -37t-37.5 -16.5h-29q-6 -39 -19 -76q-16 -43 -42.5 -83t-62.5 -70.5t-79 -51t-90 -24.5h-22q-80 0 -157 42t-110 128q-10 -4 -20 -4q-8 0 -20.5 4t-22.5 22q-8 12 -8 27q0 6 3 21.5t23 25.5q49 20 84 61q14 16 35 17l12 -1q13 -1 29 -16 q16 -16 16 -35l-1 -11q-1 -11 -15 -27l-23 -23q10 -43 39 -71.5t62 -41t65 -12.5q8 0 34 2t63 25q47 29 76.5 74t43.5 98h-26q-25 0 -38 16.5t-13 37t13 36.5t38 16h37q-4 66 -24.5 128.5t-59.5 112.5t-95.5 82t-130.5 36q-25 2 -38 18t-13 34.5t12.5 35t38.5 18.5 q43 2 87 22.5t80 53.5t61.5 74t34.5 84q4 20 4 37q0 29 -13.5 58.5t-45 51t-58.5 24.5t-39 3q-29 0 -63.5 -9.5t-69.5 -37t-51 -70.5q2 0 2 -1t2 -1q18 -10 21 -25.5t3 -21.5q0 -14 -6 -27q-10 -18 -23.5 -21t-21.5 -3q-12 0 -24 6q-29 14 -55.5 30.5t-51.5 34.5 q-18 14 -23.5 27.5t-5.5 21.5z" />
<glyph unicode="4" horiz-adv-x="876" d="M106 395q0 8 3 15q23 102 48 202.5t52 200.5q-16 0 -25 -2q-25 0 -38 15.5t-13 36t13.5 38t37.5 17.5q10 2 21 2h12q10 0 21 2q29 109 59.5 215t62.5 213q-18 0 -33.5 9t-21.5 30q-2 6 -2 12q0 12 8 30.5t31 22.5q29 4 55 4q18 0 49 -3t76 -19q20 -10 29.5 -24.5 t9.5 -29.5q0 -6 -2 -14q-6 -18 -21.5 -28.5t-27.5 -10.5q-8 0 -18 4l-25 8l-61 -208q-31 -104 -60 -209h23q25 0 38 -16.5t13 -36t-13.5 -37t-37.5 -17.5h-25q-14 0 -27 -2q-25 -92 -47 -183t-45 -183l393 6l25 620q2 25 19.5 38t37 13t35 -12t15.5 -33v-6 q-6 -160 -12.5 -315.5t-12.5 -315.5q18 -16 18 -41l-1 -14t-23 -31q-2 -63 -4 -125.5t-6 -126.5h4l4 3h4h6h4q20 0 34.5 -16.5t14.5 -37.5q0 -23 -15 -36t-38 -15q-35 -4 -68.5 -4t-68.5 2q-25 2 -38 19.5t-13 37t11 35t34 15.5h6q4 -2 16 -3q4 61 5 122t5 120 q-117 -2 -229.5 -3t-226.5 -3q-27 0 -40.5 18.5t-13.5 34.5z" />
<glyph unicode="5" horiz-adv-x="925" d="M98 86q0 14 8 27q12 27 24.5 52t23.5 52q10 20 24.5 23.5t20.5 3.5q16 0 28 -8q20 -12 23.5 -25.5t3.5 -20.5q0 -14 -8 -28q-2 0 -2 -4q59 -29 114 -29q2 0 32 1t79 23.5t88 64.5t61 95h-6q-25 2 -38 19.5t-13 37t12.5 35t32.5 15.5h6h11l16 -2h10q2 16 2 35q0 16 -2 34 q-6 86 -50 146.5t-107.5 99.5t-141.5 58.5t-151 23.5q-23 2 -38.5 16.5t-15.5 36.5q-2 127 -2 252q0 127 2 252q0 23 15.5 38t38.5 15h508q29 0 40 -18t11 -35v-10q4 -25 6 -45.5t2 -36.5v-20q0 -25 -17.5 -38.5t-38 -13.5t-36 13.5t-15.5 38.5v14q0 20 -4 43h-401 q-2 -100 -2 -201q0 -98 2 -198q106 -12 199.5 -49.5t162 -100.5t102.5 -145t34 -177v-32h20q25 -2 38 -19.5t13 -37t-12 -35t-33 -15.5h-6q-10 2 -18.5 3t-18.5 1q-25 -84 -80 -146.5t-127.5 -96t-117.5 -34.5t-50 -1q-80 0 -157 35q-2 -2 -2 -3.5t-2 -3.5 q-10 -20 -24.5 -23t-20.5 -3q-16 0 -29 8q-20 10 -23.5 23.5t-3.5 19.5z" />
<glyph unicode="6" horiz-adv-x="964" d="M96 384q0 19 11.5 34.5t33.5 15.5h6q8 -2 15 -2h8q6 0 14 -2q2 23 3 46.5t6 45.5q29 246 144.5 465t303.5 379q-16 16 -16 33q0 2 2 13t15 25.5t24.5 16.5t15.5 2q16 0 33 -16q23 -23 43 -46.5t41 -45.5q14 -16 15 -28.5t1 -14.5q0 -18 -14 -33q-14 -14 -26.5 -15.5 t-14.5 -1.5q-20 0 -35 17q-4 6 -12 14q-143 -123 -238.5 -277.5t-142.5 -338.5q-6 -31 -13 -64q39 33 91 45q43 12 86 13q43 0 106.5 -20.5t118.5 -94.5q23 -27 36 -59.5t23 -67.5q8 2 15.5 2t13.5 2l-2 8h6q23 0 34 -15.5t11 -34.5t-13.5 -36.5t-37.5 -19.5h-19 q0 -53 -13 -103.5t-38.5 -92.5t-64.5 -73.5t-90 -44.5q-37 -8 -74 -8q-53 0 -126 25.5t-126 103.5q-51 74 -63 168q-4 8 -5 16v7q-10 0 -20 1t-21 3q-25 0 -38 17.5t-13 36.5zM295 311q10 -59 39 -104t82 -72q45 -23 86 -22q8 0 36.5 4t64.5 32.5t57.5 73.5t25.5 96h-6 l-12 -2h-6h-7q-20 0 -32.5 15.5t-12.5 35t13.5 37t38.5 19.5h6q-23 59 -66 100t-100 41h-17q-66 -4 -106.5 -43t-61.5 -94q20 -4 30.5 -20.5t10.5 -32.5q0 -2 -1 -13.5t-12 -24.5t-32 -13h-6h-10q0 -8 -2 -13z" />
<glyph unicode="7" horiz-adv-x="890" d="M100 42q0 19 13.5 36.5t38.5 19.5h4l8 2h4q72 178 142.5 353.5t142.5 353.5q-8 0 -13 -2h-6q-20 0 -31.5 15.5t-11.5 34.5t13.5 36.5t37.5 19.5q16 2 29.5 3t28.5 4q41 102 78.5 201.5t76.5 201.5q-207 2 -411 12v-43q0 -25 -17.5 -38t-38 -13t-36 13.5t-15.5 37.5 q2 27 2 51v52q0 23 14.5 39t34.5 16h5q217 -12 432 -12h108l6 -13q25 0 40.5 -17t15.5 -34q0 -8 -4 -16q-41 -109 -83 -215.5t-85 -214.5q8 0 14 1t12 1h6q20 0 32.5 -14.5t12.5 -35t-13 -38t-38 -19.5q-16 -2 -34.5 -3t-36.5 -3q-72 -180 -142.5 -356t-144.5 -355h4l4 2h4 h6q20 0 32.5 -15t12.5 -34.5t-13 -37t-38 -19.5q-39 -2 -77 -4t-74 -4h-7q-23 0 -34 15.5t-11 34.5z" />
<glyph unicode="8" horiz-adv-x="946" d="M109 365q0 12 7 28.5t29 20.5q6 2 11 2l20 2q6 2 10 2q6 57 25 117q27 88 67.5 168.5t116.5 134.5q2 2 4 2l4 4q2 2 5 2q-41 41 -74 86t-55 98q-14 37 -21.5 75t-7.5 73q0 8 1 33.5t15.5 65.5t44.5 71q55 59 105.5 66t70.5 7q53 0 108.5 -22.5t93.5 -76.5t38 -120 q0 -16 -2 -37q-10 -92 -52 -175t-110 -146q51 -51 96.5 -104.5t77.5 -118.5q41 -80 41 -172v-17h15l4 -4q25 -2 38 -19.5t13 -37t-12.5 -34.5t-32.5 -15h-6h-6l-15 2h-6q-23 -104 -89.5 -187.5t-170.5 -118.5q-25 -8 -51 -8q-14 0 -42 4t-67 24.5t-70.5 49.5t-50.5 64 q-39 74 -45 159q-6 0 -8 -2q-6 -2 -12 -2q-16 0 -31.5 9.5t-21.5 31.5q-2 8 -2 15zM285 317q2 -29 10 -57.5t24 -52.5q51 -74 90.5 -78t45.5 -4q63 0 118 61q53 59 80 131q-41 0 -53 37h-2q-2 6 -2 13q0 12 8 29.5t31 21.5l37 6v10q0 139 -113 258q-18 20 -38.5 40t-41.5 38 q-27 -18 -51.5 -39.5t-40.5 -50.5q-27 -41 -44 -84t-32 -90q-6 -18 -11 -39t-9 -43h18q25 -2 38 -19.5t13 -37t-11 -35t-32 -15.5h-6h-26zM358 1165q0 -51 28 -110.5t81 -116.5l25 -25q43 39 73 93q14 27 31.5 64.5t23 67t5.5 48.5q0 18 -5.5 46t-37.5 52q-29 23 -53.5 28 t-41.5 5q-18 0 -42.5 -7t-49 -32t-33.5 -64v-2q-4 -25 -4 -47z" />
<glyph unicode="9" horiz-adv-x="964" d="M102 1076.5q0 19.5 13.5 36.5t38.5 20q12 0 18 2q0 51 13.5 101t39 92t64.5 74t90 44q35 8 72 8q53 0 125.5 -26.5t123.5 -104.5q27 -39 41.5 -81t22.5 -89q4 -8 4 -16q0 -2 1 -3t1 -4q10 -2 20.5 -3t20.5 -1l4 7q25 -2 38 -19.5t13 -37t-12 -35t-33 -15.5h-6h-10l-17 2 h-10q-2 -23 -3 -46.5t-5 -45.5q-31 -246 -145.5 -465t-302.5 -379q16 -16 16 -33q0 -4 -2 -15t-16.5 -25.5t-25.5 -16.5t-13 -2q-16 0 -33 16q-47 43 -86 93q-14 16 -15.5 26t-1.5 12q0 16 17 33q14 14 26.5 15.5t14.5 1.5q20 0 35 -17l12 -12q287 244 383 614q2 8 4 17 l6 30q2 8 4 17q-43 -33 -92 -47q-41 -12 -82 -13q-45 0 -109.5 21.5t-121.5 95.5q-37 49 -58 125h-8l-14 -2h-8h-7q-20 0 -32.5 15.5t-12.5 35zM281 1143q16 0 22 2h6q23 0 34 -15.5t11 -35t-13 -37t-38 -19.5h-6q23 -59 67 -100t105 -41h12q66 6 107 45t61 94 q-23 4 -33 20.5t-10 33.5q0 2 1 12t13.5 24.5t36.5 14.5q4 -2 11 -2v2q0 4 4 12q-10 57 -39 103.5t-82 70.5q-45 23 -86 23q-8 0 -37 -4.5t-64.5 -33t-58 -73.5t-24.5 -96z" />
<glyph unicode=":" horiz-adv-x="339" d="M102 53.5q0 26.5 16.5 48t51.5 21.5q33 0 50.5 -21.5t17.5 -48t-17.5 -48t-50.5 -21.5q-35 0 -51.5 21.5t-16.5 48zM102 405.5q0 26.5 16.5 48t51.5 21.5q33 0 50.5 -21.5t17.5 -48t-17.5 -48t-50.5 -21.5q-35 0 -51.5 21.5t-16.5 48z" />
<glyph unicode=";" d="M102 -113q0 4 2 17.5t25 25.5q23 10 28 26.5t5 27.5q0 14 -8 28t-9 27q0 8 5.5 21.5t20.5 22.5t32 9q4 0 17 -2t26 -22v-2q23 -39 22 -80q0 -23 -13 -69t-73 -79q-12 -6 -24 -6q-10 0 -24.5 6t-23 20.5t-8.5 28.5zM119 399.5q0 26.5 16 48t51 21.5q33 0 50.5 -21.5 t17.5 -48t-17.5 -48t-50.5 -21.5q-35 0 -51 21.5t-16 48z" />
<glyph unicode="&#x3c;" horiz-adv-x="587" d="M100 715q0 14 9 22h-3q68 90 138.5 175t146.5 169q16 16 35 17q2 0 13.5 -1t24.5 -14.5t15 -26t2 -16.5q0 -16 -14 -32q-133 -145 -250 -299q53 -78 111.5 -152t124.5 -141q16 -16 16 -35q0 -2 -2 -14.5t-16.5 -26.5t-24.5 -15t-12 -1q-18 0 -35 16q-152 160 -270 344 q-6 10 -7.5 19.5t-1.5 11.5z" />
<glyph unicode="=" horiz-adv-x="712" d="M100 620.5q0 20.5 13.5 37t40.5 16.5h401q27 0 39 -16.5t12 -37t-12 -37t-39 -16.5h-401q-27 0 -40.5 16.5t-13.5 37zM100 847.5q0 20.5 13.5 37t40.5 16.5h401q27 0 39 -16.5t12 -37t-12 -36.5t-39 -16h-401q-27 0 -40.5 16t-13.5 36.5z" />
<glyph unicode="&#x3e;" horiz-adv-x="587" d="M100 1042q0 2 2 14.5t15.5 26t25 14.5t13.5 1q18 0 34 -17q76 -84 147 -169t138 -175q8 -8 8 -22q0 -2 -1 -11.5t-7 -19.5q-121 -184 -270 -344q-16 -16 -35 -16q-2 0 -13.5 1t-24.5 15t-15 26.5t-2 14.5q0 18 16 35q66 68 124 141.5t112 151.5q-117 154 -250 299 q-16 16 -17 34z" />
<glyph unicode="?" horiz-adv-x="806" d="M100 1169v11q10 84 59.5 146.5t135.5 80.5q41 8 69.5 10t41.5 2q33 0 71.5 -8t76.5 -29.5t64 -60.5q66 -98 67 -148.5t1 -54.5q0 -94 -33 -192q25 0 38.5 -16.5t13.5 -37t-13.5 -37t-38.5 -16.5h-43q-47 -113 -95 -223.5t-58 -216.5q-2 -25 -19.5 -38t-37 -13t-35 11 t-15.5 34v6q10 123 57.5 227.5t94.5 212.5h-27q-25 0 -38 16.5t-13 37t13.5 37t37.5 16.5h66l4 16l6 27l4 16q10 45 12 81t2 48q0 43 -11 86t-46 77t-100 36q-35 0 -70 -5t-63.5 -20.5t-48 -42t-23.5 -65.5q-4 -25 -21.5 -38.5t-38 -13.5t-34 12.5t-13.5 28.5zM352 36.5 q0 26.5 16.5 48t51.5 21.5q33 0 50 -21.5t17 -48t-17 -48t-50 -21.5q-35 0 -51.5 21.5t-16.5 48z" />
<glyph unicode="@" horiz-adv-x="1101" d="M98 849.5q0 20.5 13.5 37t38.5 16.5h55q12 98 41.5 194.5t81 173.5t122 120t158.5 43h25q90 -4 152.5 -44t104.5 -102.5t64.5 -142.5t32.5 -163t10 -164t-4 -146q-2 -35 -10 -84t-26.5 -94t-48 -75t-72.5 -30h-13q-47 2 -77.5 25.5t-51.5 60.5q-18 -29 -44.5 -49 t-63.5 -27q-14 -2 -27 -2q-20 0 -43.5 7.5t-47.5 29t-38 51t-20 62.5q-6 37 -6.5 86t9 98t29 94t49 73t55 32t34.5 4q37 0 79 -21q16 -6 25 -20h10q16 0 35 -11.5t21 -39.5q2 -27 3 -49.5t1 -34.5q0 -23 -2 -47q2 -29 5 -56.5t9 -56.5q6 -25 17.5 -49.5t23.5 -34.5t22 -10 q4 0 14.5 5t22.5 44q20 68 21.5 115t1.5 71q0 47 -2 95q-4 76 -7 150.5t-30 145.5q-16 43 -45 85t-67 73t-70.5 39t-51.5 8q-29 0 -61 -12q-57 -23 -99 -64.5t-72 -98t-47.5 -122t-25.5 -131.5h8q25 0 38.5 -16.5t13.5 -36.5t-13.5 -36.5t-38.5 -16.5h-16q-2 -23 -2 -43 q0 -10 1 -29.5t3 -46.5q10 -106 41 -211.5t94 -194.5l-6 -4q29 -41 73 -81.5t91 -64.5t96 -24q4 0 33 1t76 44q16 16 35 17q2 0 14 -2t25.5 -16.5t14.5 -24.5t1 -12q0 -18 -16 -35q-53 -49 -102.5 -62.5t-86.5 -13.5q-23 0 -62.5 6t-97 38t-104.5 79q-104 104 -158.5 242.5 t-66.5 281.5q-4 35 -4 73t2 79h-47q-25 0 -38.5 16t-13.5 36.5zM508 631q0 -25 2 -37h2q2 -10 5 -27.5t10.5 -33t16.5 -22.5t17 -7q6 0 12 2q39 12 54.5 59t19.5 107q-4 41 -4 78.5t2 68.5h-8q-12 0 -29 4q-12 6 -24 6q-18 0 -35 -21.5t-28 -64.5t-12 -72.5t-1 -39.5z" />
<glyph unicode="A" horiz-adv-x="1021" d="M104 78.5q0 19.5 11.5 35t34.5 15.5h6h10q12 59 24.5 119.5t24.5 122.5h-12q-25 0 -38 17.5t-13 36.5t13 35.5t38 16.5h37q47 229 92 453.5t92 453.5q-8 0 -14.5 -1t-12.5 -1h-6q-23 0 -34 15.5t-11 35t13.5 37t37.5 19.5l197 12h6q20 0 32.5 -15.5t12.5 -34.5 t-13.5 -36.5t-37.5 -19.5q-14 0 -35 -4q59 -231 113.5 -463t101.5 -467h8l17 -2h8q25 0 38 -17.5t13 -38t-13.5 -36t-37.5 -15.5h-12q12 -59 24 -119q10 -55 19 -110q2 0 4 2h4q2 2 4 2q8 2 14 2q16 0 30.5 -11.5t19 -25.5t4.5 -22q0 -10 -6.5 -25.5t-30.5 -21.5 q-51 -12 -99 -13q-23 0 -43 2q-23 2 -38 15.5t-15 38.5q0 16 12.5 32.5t30.5 18.5q-10 63 -22.5 124.5t-22.5 123.5q-92 2 -181 4t-181 4q-12 -61 -24.5 -124t-25.5 -124q8 -2 16.5 -2t18.5 -2q25 -2 38 -19.5t13 -37t-12 -35t-33 -15.5h-6q-39 4 -76.5 5t-74.5 4 q-25 2 -38.5 19t-13.5 36.5zM344 473l320 -6q-39 188 -80 375q-43 182 -88 366q-39 -186 -76 -366q-37 -182 -76 -369z" />
<glyph unicode="B" horiz-adv-x="1056" d="M109 1409.5q0 20.5 13 37.5t38 21q59 8 125.5 17.5t122.5 9.5q23 0 71.5 -3t116.5 -28.5t106 -89.5q29 -47 31 -87t2 -50q0 -59 -17.5 -127t-54 -135.5t-85.5 -110.5q88 -23 163.5 -61.5t128.5 -126.5q59 -98 75 -175t16 -116q0 -76 -31 -147q-45 -109 -136.5 -162 t-182.5 -66.5t-167 -13.5q-37 0 -113.5 5t-170.5 22q-25 4 -31 19t-6 26q0 8 3 21t18.5 24.5t33.5 11.5h10q43 -6 99 -12q4 170 5 281.5t1 168.5q0 113 -2 225h-51q-27 0 -56 3q-25 2 -38 19t-13 36.5t12.5 35t32.5 15.5h6q27 -2 54 -2h51q-4 113 -8 242q-4 127 -11 239 q-20 -4 -39 -6l-30 -2q-20 -2 -43 -6h-11q-16 0 -27 13.5t-11 34zM375 1382q6 -113 10 -240.5t6 -240.5v-2h10q35 0 75 28.5t73 76t54.5 104.5t21.5 110.5t-23.5 94.5t-79.5 55q-57 14 -119 14h-28zM391 102q31 -2 62 -2q37 0 92 4.5t116.5 23.5t107.5 58t65 105l2 2 q14 47 14 98q0 41 -16.5 111.5t-71.5 144.5q-33 43 -75 67.5t-88 39t-94 21.5t-97 18q-4 -2 -13 -2q2 -117 2 -230q0 -57 -1 -171t-5 -288z" />
<glyph unicode="C" horiz-adv-x="1013" d="M98 865.5q0 19.5 12.5 34.5t32.5 15h7h43q8 61 22 133t37.5 142t56.5 131t80 102q51 47 100.5 60.5t85.5 13.5q20 0 59.5 -6t91.5 -39t89 -82q12 14 23.5 16.5t15.5 2.5q14 0 27 -9q18 -10 23 -25.5t5 -23.5q0 -12 -8 -24q-37 -61 -90 -109q-16 -16 -26.5 -17t-12.5 -1 q-16 0 -33 16q-16 14 -17 26l-1 13q0 20 16 35l13 12q-41 68 -83 84t-75 16q-23 0 -61.5 -10t-88 -55t-77.5 -111q-12 -25 -21.5 -62.5t-17 -77.5t-13.5 -80t-10 -68q8 0 12 2h11q18 0 33.5 -11.5t18.5 -25t3 -21.5q0 -10 -6 -25.5t-31 -19.5q-12 -2 -25.5 -3t-27.5 -3 q-4 -47 -4 -92q0 -12 1 -46t5 -87q4 -55 15 -114.5t32.5 -114t55.5 -101.5t85 -80q61 -41 111 -41q23 0 65.5 17.5t85.5 99.5l-24 24q-16 14 -17 35l2 13q1 12 17 26q16 16 35 17l11 -1q11 -1 28 -18l98 -92q16 -14 16 -35l-1 -12q-1 -12 -17 -27q-14 -16 -32.5 -16 t-35.5 10q-31 -49 -71.5 -87t-82.5 -52t-81 -14q-16 0 -51 4t-91 41q-131 86 -192 224t-68 290q-2 51 -3 83.5t-1 43.5q0 43 4 88l-2 12h-34q-25 2 -38.5 19.5t-13.5 37z" />
<glyph unicode="D" horiz-adv-x="1007" d="M100 78q0 8 4.5 21.5t17.5 23.5t25 10q8 0 19 -4q31 -10 61 -12q0 174 -2 344t-6 344h-53q-25 0 -38 16.5t-13 37t13 36.5t38 16h49q0 51 -1 113.5t-2 126t-2 125t-1 115.5q-10 0 -21.5 -1t-21.5 -4v-4h-10q-18 0 -34 11.5t-19 25t-3 21.5q0 10 6.5 25.5t30.5 19.5 q49 8 99 8q20 0 66 -3t116.5 -21.5t137.5 -48t122 -68.5q66 -47 108.5 -127t69.5 -174.5t36 -181.5t9 -152v-25q-2 -76 -13 -162t-39 -166.5t-74 -149.5t-120 -110q-55 -31 -119.5 -54t-128 -34.5t-122.5 -11.5q-8 0 -47 1t-101 22q-25 8 -31 23.5t-6 27.5zM317 1386 q0 -51 1 -112.5t2.5 -124t2.5 -123.5t1 -113h47q25 0 38 -16t13 -36.5t-13.5 -37t-37.5 -16.5h-43q4 -174 6 -344t2 -344q74 6 144.5 28.5t123.5 57.5l-2 -2q57 37 95 95t59.5 126t30 139.5t8.5 134.5q0 68 -9.5 155t-32 172t-63.5 156.5t-106 108.5q-59 35 -127 60.5 t-140 35.5z" />
<glyph unicode="E" horiz-adv-x="962" d="M102 1433.5q0 20.5 13.5 38t40.5 17.5q164 4 325.5 6t325.5 2q23 0 37 -14.5t14 -32.5v-6q-2 -23 -2 -43q0 -10 1 -31.5t3 -54.5h4v-6q0 -20 -15 -32.5t-34.5 -12.5t-37 13t-19.5 38q-2 18 -3 36.5t-1 37.5q-109 -2 -216.5 -3.5t-215.5 -3.5q0 -104 1 -229t1 -229l172 6 v8q0 25 16 38t36.5 13t37 -13t16.5 -38v-147q0 -27 -16.5 -40.5t-37 -13.5t-36.5 13.5t-16 40.5v34l-172 -6q2 -182 3 -362.5t1 -362.5q109 0 215 2t215 4v56q0 25 17.5 38t38 13t36.5 -13.5t16 -37.5q-2 -29 -2 -56v-53q0 -23 -15 -38t-38 -15q-164 -2 -284.5 -5t-200.5 -3 q-82 0 -164 2q-25 0 -38 17.5t-13 36.5t13 35.5t38 16.5h59q-2 180 -3 359.5t-3 361.5q-14 -2 -28.5 -2t-30.5 -2q-25 0 -38.5 15.5t-13.5 36t13.5 38t38.5 17.5q12 2 22 2h15q10 0 22 2q0 104 -1 231t-1 231h-14l-29 -2h-14q-27 0 -40.5 15.5t-13.5 36z" />
<glyph unicode="F" horiz-adv-x="985" d="M102 885.5q0 19.5 12.5 35t32.5 15.5h7l61 -6q-2 104 -3 227t-1 227q-14 -2 -29 -2h-28q-25 0 -38.5 15.5t-13.5 36t13.5 38t38.5 17.5q27 2 53 2h51q4 2 6 2q4 0 6 -2h113q84 0 194.5 -2t251.5 -6q23 -2 37.5 -16.5t16.5 -36.5v-31q0 -61 -6 -123l4 4q-4 -25 -21.5 -38 t-38 -13t-34 12t-13.5 29v10q4 27 5 51.5t3 50.5q-117 4 -201.5 6.5t-142.5 2.5q-57 0 -116 -2q2 -106 2 -229.5t2 -229.5q43 -2 86 -2t86 2v24q0 25 16 38.5t36.5 13.5t37 -13.5t16.5 -38.5v-172q0 -25 -16.5 -38t-37 -13t-36.5 13.5t-16 37.5v39q-43 -2 -86 -2t-86 2 q2 -178 3 -352t3 -352h24q25 0 38.5 -16.5t13.5 -37t-13.5 -37t-38.5 -16.5h-196q-25 0 -38 16.5t-13 37t13 37t38 16.5h61l-6 706l-61 6q-25 2 -38.5 19.5t-13.5 37z" />
<glyph unicode="G" horiz-adv-x="1036" d="M94 867.5q0 19.5 13.5 36t37.5 16.5q14 -2 27 -2h25q6 74 22.5 156.5t47 160.5t78.5 141.5t120 96.5q51 23 82 24.5t39 1.5q43 0 88 -13t88 -43t76 -71l12 6q10 10 24 11q6 0 21.5 -5.5t26.5 -23.5q8 -12 8 -25q0 -8 -5 -21.5t-24 -25.5q-27 -20 -52.5 -38.5t-51.5 -37.5 q-10 -10 -25 -10q-6 0 -21.5 5t-25.5 24q-8 12 -8 24q0 8 5 21.5t23 26.5q2 2 3 2l4 2l2 2q-35 41 -80 60.5t-88 19.5q-6 0 -35 -2.5t-75 -28t-77 -76.5q-20 -35 -35.5 -79t-26.5 -92t-18.5 -96t-11.5 -87h6h11q18 0 33.5 -11.5t18.5 -24.5t3 -22q0 -10 -6 -25.5t-31 -19.5 q-4 0 -10 -2l-21 -2q-4 0 -10 -2q-2 -23 -2 -45v-178q0 -72 11.5 -141.5t35 -133t70.5 -112.5q31 -33 77 -54.5t97 -33.5t87 -13.5t52 -1.5q35 0 66 3q0 180 -1 284.5t-1 132.5q0 150 8 299q-23 2 -46.5 3t-45.5 1q-25 0 -38.5 17.5t-13.5 37t13.5 36t38.5 16.5q29 -2 57 -2 l39 -2q29 -2 57 -4q20 -2 36.5 -15.5t16.5 -33.5v-5q-12 -178 -12 -354q0 -27 1 -140.5t1 -318.5l-8 -2q0 -16 -11.5 -30.5t-27.5 -18.5q-61 -12 -129 -12q-6 0 -46 1t-113.5 17.5t-139 49t-108.5 88.5q-53 66 -82 146.5t-42.5 166.5t-13.5 174t4 170h-20q-12 0 -23 2 q-25 0 -38 17.5t-13 37z" />
<glyph unicode="H" horiz-adv-x="1093" d="M106 886.5q0 20.5 13.5 38t38.5 17.5q16 2 30 2h31q2 111 4 217.5t6 216.5q-8 0 -14 1t-12 1q-25 2 -38 19.5t-13 37t11 35t34 15.5h6q35 -2 70.5 -3t70.5 -5q25 -2 38 -19.5t13 -37t-12 -35t-33 -15.5h-6q-4 2 -10 2q-4 -106 -6 -213l-4 -213q115 2 227 2q115 0 227 -2 q2 109 4 215.5t6 214.5q-6 0 -12 1t-14 1q-25 2 -38 19.5t-13 37t12 35t33 15.5h6q35 -2 70.5 -3t70.5 -5q25 -2 38 -19.5t13 -37t-11 -35t-34 -15.5h-6q-2 2 -10 2q-4 -106 -6 -213l-4 -213v-10q16 0 29.5 -1t27.5 -1q25 0 38 -17.5t13 -38t-13 -36t-38 -15.5h-29 q-14 0 -30 2q-2 -121 -2 -241q0 -61 1 -181t5 -303q23 -2 38 -15t15 -36q0 -20 -14.5 -36.5t-34.5 -16.5h-4q-31 4 -51.5 5t-30.5 1q-20 0 -41 -2h-6q-20 0 -32.5 15.5t-12.5 35t13 37t38 19.5h18q-4 182 -5 302t-1 181q0 121 2 242q-113 2 -227 2q-113 0 -227 -2 q-2 -121 -3 -242q0 -61 1.5 -181t5.5 -302q23 -2 38 -15.5t15 -36.5q0 -20 -14.5 -36.5t-34.5 -16.5h-4q-31 4 -51.5 5t-30.5 1q-20 0 -43 -2h-6q-20 0 -31.5 15.5t-11.5 35t13 37t38 19.5h20q-4 180 -5 300t-1 179q0 119 2 240h-31q-14 0 -30 -2q-25 0 -38.5 15t-13.5 35.5 z" />
<glyph unicode="I" horiz-adv-x="485" d="M98 903q0 23 15.5 36t38.5 17l43 7q2 106 3 210.5t3 208.5q-16 0 -25 -2h-6q-23 0 -34 15.5t-11 35t13.5 37t37.5 19.5q39 4 78 5t78 3l-2 -2h6q20 0 32.5 -15.5t12.5 -35t-13.5 -36.5t-37.5 -20h-6l-13 -2h-6l-6 -411q4 2 7 2t7 2h4q20 0 35 -16.5t15 -36.5 q0 -23 -15.5 -36.5t-38.5 -15.5q-2 -2 -6 -2h-4q-2 0 -6 -2q-2 -180 -3 -377.5t-3 -377.5q16 0 24 2h7q20 0 32.5 -15.5t12.5 -35t-13.5 -37t-38.5 -19.5q-35 -4 -70.5 -5t-70.5 -3h-6q-23 0 -34 15.5t-11 35t13.5 36.5t37.5 19h4l4 3h4q2 178 3 373.5t4 373.5q-4 0 -11 -2 l-20 -2q-4 0 -10 -2h-9q-16 0 -30.5 16.5t-14.5 36.5z" />
<glyph unicode="J" horiz-adv-x="940" d="M100 360q0 23 15.5 36.5t38.5 17.5q33 4 65 18q14 8 29 8q6 0 19.5 -3t25.5 -23q6 -10 6 -25q0 -6 -3 -21.5t-24 -25.5l-2 -2l-4 -2l-2 -2q4 -57 25.5 -115.5t79.5 -87.5q39 -18 77 -18q16 0 53.5 7t69.5 62q43 72 57.5 157t22.5 169q8 74 11.5 148.5t5.5 148.5h-25 q-25 0 -38 16.5t-13 37t13 36.5t38 16h25q0 51 -1 112.5t-2 124t-3.5 124t-4.5 112.5q-100 -4 -159.5 -5t-79.5 -1q-80 0 -160 4q-2 -16 -2 -32v-35q0 -25 -16.5 -38t-36 -13t-37 13t-17.5 38v24q0 49 7 99l-2 6q2 23 14 38t33 15h4q125 -6 248 -6q125 0 249 6h5 q20 0 33.5 -16.5t15.5 -38.5q2 -57 5 -125t6 -138.5t4 -139t1 -126.5h12q25 0 38.5 -16t13.5 -36.5t-13.5 -37t-38.5 -16.5h-12q0 -25 -1 -50.5t-3 -49.5q-6 -129 -17.5 -264.5t-58.5 -256.5q-18 -43 -49 -81.5t-72 -65.5t-73.5 -33t-49.5 -6q-33 0 -63 10 q-104 35 -158.5 114t-64.5 181h-6h-9q-16 0 -30.5 16.5t-14.5 36.5z" />
<glyph unicode="K" horiz-adv-x="1069" d="M96 908.5q0 19.5 13.5 36t37.5 16.5h37h33q0 100 -1 217.5t-3 218.5l-43 -6h-6q-20 0 -32.5 15t-12.5 34.5t13 37t38 19.5q47 4 93 6t93 6h6q20 0 33 -15t13 -34.5t-13.5 -37t-38.5 -19.5q-8 -2 -14 -2h-8q-6 0 -15 -2q2 -90 3.5 -196.5t3.5 -196.5q96 82 187 188 t177 199q-33 14 -33 49q0 20 14.5 36.5t35.5 16.5h4q43 -4 70.5 -5t41.5 -1q29 0 56 2h6q23 0 34 -15.5t11 -35t-13.5 -37t-37.5 -19.5q-14 -2 -27 -2h-29q-2 -4 -3 -7t-5 -7q-96 -104 -196.5 -222t-208.5 -210q51 -23 97 -59.5t86 -79.5t73.5 -91.5t62.5 -93.5 q72 -111 110 -219t38 -215q0 -25 -3 -51q4 2 11 2h6q4 0 8 2q6 2 12 2q16 0 31.5 -9t22.5 -32q2 -6 2 -14q0 -12 -8.5 -28.5t-30.5 -20.5q-70 -12 -137 -13h-35q-25 0 -38 17.5t-13 37t13 36t38 16.5h12q2 23 2 43q0 96 -34 196.5t-99 198.5q-29 41 -61.5 86t-70.5 86 t-81 73t-94 48q0 -365 -6 -729h36q25 0 38.5 -16.5t13.5 -37t-13.5 -37t-38.5 -16.5h-176q-25 0 -38 16.5t-13 37t13.5 37t37.5 16.5h35q6 365 6 731h-37h-34l-7 -2q-25 0 -38 17.5t-13 37z" />
<glyph unicode="L" horiz-adv-x="985" d="M100 842.5q0 19.5 12.5 35t32.5 15.5h7h38v119q0 61 1.5 125.5t2.5 128t3 118.5h-21q-25 0 -38 16.5t-13 37t13.5 37t37.5 16.5h154q25 0 38 -16.5t13 -37t-13.5 -37t-37.5 -16.5h-27q-4 -111 -5 -242.5t-1 -242.5q6 2 10 2l19 2q6 2 10 2h8q16 0 30.5 -16.5t14.5 -36.5 q0 -23 -15.5 -36t-37.5 -17q-4 0 -10 -2l-19 -2q-4 0 -10 -2q2 -172 5 -341t11 -341q78 2 154 2q39 0 114.5 -1t192.5 -3q2 14 2 28q0 8 -1 22.5t-5 37.5v10q0 18 12.5 33.5t25.5 18.5t21 3q10 0 24.5 -6t18.5 -31q6 -47 7.5 -72.5t1.5 -33.5q0 -37 -9 -76q-4 -18 -19 -28.5 t-32 -10.5q-141 0 -233 1t-139 1q-92 0 -185 -2h-6q-18 0 -31.5 14.5t-15.5 36.5q-10 184 -14 365.5t-7 367.5h-38q-25 0 -38.5 17.5t-13.5 37z" />
<glyph unicode="M" horiz-adv-x="1296" d="M96 907q0 6 2 13q6 23 21.5 30.5t30.5 7.5q8 0 14 -2q4 -2 8 -2h6q4 0 8 -2l-6 430h-2q-6 -2 -12 -2q-16 0 -31.5 9.5t-21.5 31.5q-2 6 -2 13q0 12 8 29.5t31 21.5q39 6 65.5 8t42.5 2q20 0 43 -2q25 -2 37 -17.5t13 -25.5t1 -12q0 -18 -10 -32.5t-33 -16.5 q12 -29 23.5 -59t21.5 -56q33 -78 64 -156l61 -155q41 -104 80 -211t86 -209q51 100 89 209.5t79 210.5q41 100 80 209.5t92 207.5q-33 8 -39 37q-2 6 -2 15q0 12 8.5 28.5t30.5 20.5q39 6 65.5 8t43.5 2q23 0 45 -2q25 -2 38 -19.5t13 -37t-11.5 -35t-31.5 -15.5h-6 q-6 2 -15 2q0 -111 1 -219t3 -219h7q25 0 38 -16.5t13 -37t-13.5 -36.5t-37.5 -16h-7q2 -180 5 -359v-344l22 -6q23 -4 30 -20.5t7 -28.5q0 -6 -2 -14q-6 -23 -21.5 -32t-31.5 -9q-6 0 -13 2q-47 6 -94 6h-22h-7q-20 0 -32.5 15.5t-12.5 34.5t13.5 36.5t38.5 19.5h14l-6 707 h-12q-25 0 -38.5 16.5t-13.5 37t13.5 36.5t38.5 16h12q-2 59 -2 121v123q-35 -80 -63.5 -163t-59.5 -161q-39 -96 -75 -199.5t-83 -199.5q16 -8 22.5 -22.5t6.5 -24.5q0 -6 -2 -17.5t-14.5 -24.5t-34.5 -13h-142q-25 0 -38 16.5t-13 35.5t12.5 36.5t36.5 17.5 q-53 104 -93 217t-83 222l-49 122q-25 61 -51 121q2 -53 3 -105t3 -106h10h6q20 0 31.5 -15t11.5 -34.5t-13 -37t-38 -19.5h-8l12 -707h10q25 0 38.5 -16.5t13.5 -37t-13.5 -36.5t-38.5 -16h-133q-25 0 -38 16t-13 36.5t13.5 37t37.5 16.5h13q-4 180 -6.5 355.5t-6.5 355.5 q-6 2 -12 2l-27 2q-6 2 -12 2q-23 4 -31 21.5t-8 31.5z" />
<glyph unicode="N" horiz-adv-x="1058" d="M113 1442.5q0 19.5 12 35t33 15.5h6q31 -2 59 -2l39 -2q29 -2 60 -4q25 -2 37 -18.5t13 -26.5t1 -13q0 -18 -11.5 -33.5t-35.5 -15.5q102 -264 216.5 -519t225.5 -515q4 121 5 201t1 121q0 80 -2 159h-35q-25 0 -38 15.5t-13 36t13.5 38t37.5 17.5h33q-2 109 -4 215 t-6 217h-23q-25 0 -38 16.5t-13 37t13.5 36.5t37.5 16h137q25 0 38.5 -16t13.5 -36.5t-13.5 -37t-38.5 -16.5h-10q4 -111 6 -217.5t4 -216.5q16 0 25 -2q25 -2 38 -19.5t13 -37t-12 -35t-33 -15.5h-6q-8 2 -25 2v-141q0 -104 -2 -243.5t-8 -315.5q12 0 29 4q6 2 14 2 q14 0 29.5 -8t21.5 -31q2 -6 3 -12q0 -12 -8.5 -30.5t-30.5 -22.5q-92 -12 -181 -13q-25 0 -38 16.5t-13 37t13.5 36t37.5 15.5h4q-111 270 -231.5 534t-230.5 535q-2 -63 -2 -126t-2 -126h26q25 0 38 -16.5t13 -37t-13 -37t-38 -16.5h-26q-2 -121 -3 -239q0 -61 1.5 -181 t11.5 -301l6 3h24q25 0 38.5 -16.5t13.5 -36t-13.5 -37t-38.5 -17.5h-26q-70 0 -137 18q-25 6 -31 21.5t-6 28.5q0 8 3 20t17.5 23.5t30.5 11.5q6 0 14 -2q2 -2 6 -2q-10 178 -11 294.5t-1 176.5q0 117 2 235h-12q-25 0 -38 16.5t-13 37t13 37t38 16.5h12q2 113 3 187.5 t1 113.5q0 74 -2 149h-4l-10 2h-4q-25 2 -38 19.5t-13 37z" />
<glyph unicode="O" horiz-adv-x="1017" d="M98 825.5q0 20.5 13.5 38t38.5 17.5q8 2 24 2q0 37 1 91t4 109.5t8.5 107.5t17.5 87q4 8 6 10v4q23 49 58.5 90t81.5 69t87 37t72 9q25 0 49 -4q127 -23 190.5 -111t79.5 -208q4 -25 7.5 -64t4.5 -82t3 -83t2 -64h16q27 0 39 -16.5t12 -37t-12 -37t-39 -16.5h-16 q-4 -92 -10.5 -181t-12.5 -177v-6q-4 -49 -8 -103.5t-17.5 -107t-40 -95.5t-75.5 -69q-47 -25 -92 -36t-84 -11q-12 0 -45 3t-81 23.5t-85 61.5q-59 66 -79.5 143.5t-29.5 165.5q-10 98 -11 171t-1 122v98q-16 0 -24 -2q-25 0 -38.5 15.5t-13.5 36zM283 479q0 -80 13 -156.5 t50 -137t113 -76.5q23 -6 51 -7q4 0 23.5 1t50 9.5t56.5 27t38 46.5q18 43 24.5 90.5t10.5 94.5q6 102 12 202.5t8 202.5h-43q-25 0 -38 16.5t-13 37t13.5 37t37.5 16.5h43q2 45 2 109.5t-7 131t-22.5 123t-46.5 86.5q-45 43 -81.5 51.5t-61.5 8.5q-27 0 -63.5 -10.5 t-77.5 -45t-66 -86.5q-10 -29 -14 -75t-5 -95t-2 -94t-1 -76v-4l-2 -4v-4q2 2 4 2h4q2 2 4 2q6 2 12 2q16 0 31.5 -9t21.5 -32q2 -6 3 -14q0 -12 -8.5 -28.5t-30.5 -20.5l-43 -6v-2v-88v-89v-137z" />
<glyph unicode="P" horiz-adv-x="950" d="M102 58.5q0 19.5 12.5 35t32.5 15.5h7q8 -2 16 -2.5t16 -0.5q-4 186 -5 296t-1 147q0 145 4 295h-24q-25 0 -38 17.5t-13 37t13 35.5t38 16h24q2 104 4 215t7 215q-25 -4 -43 -6l2 -4h-11q-16 0 -28.5 13.5t-12.5 34t13.5 38t38.5 21.5q57 6 112.5 9t89.5 3 q45 0 107.5 -4t139.5 -22.5t135.5 -56.5t85 -90t26.5 -114q0 -23 -4 -49q-6 -41 -19.5 -84t-35 -82t-51 -70.5t-68.5 -48.5q-86 -37 -148.5 -38t-87.5 -1q-74 0 -147 5q-2 -182 -2 -362.5t4 -362.5q6 2 10 2l14 2q6 2 11 2h8q16 0 30.5 -16.5t14.5 -37.5q0 -23 -15.5 -36 t-37.5 -17q-57 -8 -115 -8q-29 0 -57 2q-25 2 -38.5 19.5t-13.5 37zM291 942q66 -4 132 -4t130 8q35 4 67.5 23.5t59.5 49.5t42 65.5t17 72.5v8q0 78 -37.5 126t-102 70.5t-124 26t-96.5 3.5q-39 0 -76 -2q-4 -106 -6 -222t-4 -225h-2z" />
<glyph unicode="Q" horiz-adv-x="1136" d="M92 856.5q0 20.5 13.5 37.5t37.5 17h7l12 2h6v86q0 47 3 97.5t8 97.5t18 82q2 2 2 4l2 2q2 2 2 4v4q23 49 58.5 90t81.5 69t87 37t72 9q25 0 49 -4q127 -23 190.5 -112t79.5 -210q4 -25 7 -58.5t4.5 -70t3.5 -71.5t2 -60h16q27 0 39 -16t12 -36.5t-12 -37t-39 -16.5h-16 q-4 -92 -10.5 -181.5t-12.5 -177.5q-4 -39 -7 -83t-10 -87t-22.5 -82.5t-42.5 -70.5q14 -25 36 -57.5t47.5 -56t44 -29t24.5 -5.5q23 0 45 19l8 -6q16 12 33 12q4 0 17 -2t27.5 -15.5t15.5 -23.5l1 -10q0 -18 -20 -35q-55 -45 -125 -45q-4 0 -44 2t-93 59q-18 18 -44 53 t-55 70q-74 -31 -151 -31q-18 0 -78 5.5t-131 80.5q-61 66 -82 144t-29 166q-10 98 -11 170.5t-1 122.5v98h-6l-12 -2h-7q-25 0 -38 15.5t-13 36zM270 733q0 -43 2 -88v-102q0 -59 5.5 -121t20.5 -119t48 -98q41 53 87 67.5t71 14.5q43 0 84 -23q43 -20 80 -53l6 6 q18 43 24.5 89t10.5 93q6 102 12 202.5t8 205.5h-43q-25 0 -38 16.5t-13 37t13.5 36.5t37.5 16h43q2 45 2 104.5t-7 119t-22.5 111.5t-46.5 81q-45 43 -82.5 52.5t-62.5 9.5t-61.5 -10.5t-77.5 -45.5t-66 -86q-10 -29 -14 -69.5t-5 -83.5t-2 -83t-1 -71q0 -2 -1 -4t-1 -6h4 l4 2h4q6 2 12 2q16 0 31.5 -9t21.5 -32q2 -6 2 -14q0 -12 -8 -28.5t-30 -21.5l-50 -8q-2 -45 -2 -90zM436 147q2 0 4 -2l13 -2q2 0 4 -2q29 -6 60.5 -6t62.5 8q-37 35 -57.5 38t-24.5 3q-33 0 -60 -37h-2z" />
<glyph unicode="R" horiz-adv-x="997" d="M96 1419.5q0 20.5 13.5 38t37.5 21.5q57 6 112.5 9t90.5 3q45 0 107.5 -4t139.5 -22.5t135.5 -56.5t85 -90t26.5 -114q0 -23 -4 -49q-6 -41 -19.5 -84t-35 -83t-51 -71.5t-68.5 -48.5q-45 -20 -103 -30q37 -186 99.5 -362.5t125.5 -354.5q12 2 24.5 2t27.5 2h6 q20 0 32.5 -15.5t12.5 -35t-13.5 -37t-37.5 -19.5l2 -6q-43 -2 -86 -3t-86 -5q-27 0 -39.5 15.5t-12.5 36t13.5 38t38.5 17.5q2 2 8 2l-123 352q-61 176 -96 360q-29 -2 -58 -2q-14 0 -42.5 1t-71.5 5q-2 -182 -2 -362t4 -363q10 2 18 3.5t17 3.5h8q16 0 30.5 -16.5 t14.5 -37.5q0 -23 -15.5 -36t-37.5 -17q-57 -8 -115 -8q-29 0 -57 2q-25 2 -38.5 19.5t-13.5 37t12.5 34.5t32.5 15h7q8 -2 16 -2h16q-4 186 -4 368.5t2 369.5h-24q-25 0 -38.5 17t-13.5 36.5t13.5 36t38.5 16.5h24q2 104 4 216t7 216q-12 -2 -23.5 -3t-22.5 -3h-10 q-16 0 -28.5 13.5t-12.5 34zM291 940q66 -4 132 -4t130 8q35 4 67.5 24.5t59.5 50.5t42 66.5t17 73.5v8q0 78 -37.5 126t-102 70.5t-124 26t-96.5 3.5q-39 0 -76 -2l-2 -2q-4 -106 -6 -223t-4 -226z" />
<glyph unicode="S" horiz-adv-x="913" d="M104 279q0 18 17 32q57 51 119 95q12 8 24 8q8 0 23.5 -5.5t25.5 -23.5q6 -12 6 -25q0 -8 -4 -21t-22 -26l-23 -14q18 -37 49 -82t68 -74.5t59.5 -31.5t24.5 -2q39 0 78 41q66 70 74 129t8 86q0 63 -21 127q-31 100 -94 172.5t-129 144.5q-12 2 -22 2h-17q-10 0 -22 2 q-23 0 -36.5 14.5t-14.5 24.5t-1 14q0 14 7.5 28.5t25.5 20.5q-8 10 -15 21.5t-13 21.5q-31 55 -43.5 112.5t-12.5 107.5q0 18 3 60t31 101.5t83 100.5q45 35 86 45t72 10q18 0 51 -5t78 -28.5t82 -62.5l12 12q16 16 35 16q2 0 13 -1t28 -17q16 -16 16 -35q0 -2 -1 -13 t-17 -28l-80 -86q-16 -16 -35 -16q-2 0 -13.5 1t-25.5 17q-16 16 -16 36t12 36q-39 45 -75 54t-58 9q-25 0 -60.5 -11t-71.5 -51t-44 -99q-2 -20 -2 -39q0 -25 5 -57.5t21.5 -73.5t41 -78t50.5 -68q23 -2 44.5 -3t43.5 -1q25 0 37.5 -16.5t13.5 -26.5t1 -12 q0 -16 -10.5 -32.5t-30.5 -18.5q70 -82 120 -172t66 -203l4 12q4 -29 4 -63q0 -29 -5 -78t-29.5 -110.5t-68.5 -107.5t-110 -59q-27 -6 -53 -6q-29 0 -67.5 11.5t-80.5 43t-76 75.5t-59 91q-14 -8 -28 -8q-4 0 -16.5 2t-25 16.5t-13.5 24.5t-1 13z" />
<glyph unicode="T" horiz-adv-x="888" d="M106 1444v8q0 14 11 25q10 31 43 30h4q137 -14 221 -16t117 -2q106 0 213 8h2h6q16 0 29 -10q14 -6 22 -17.5t8 -23.5v-6q-2 -18 -2 -35q0 -8 1 -25.5t7 -44.5q2 -6 3 -12q0 -16 -9.5 -31.5t-31.5 -21.5q-6 -2 -15 -2q-12 0 -29.5 8t-21.5 31t-5 43t-3 43 q-47 -2 -95.5 -3t-95.5 -1q-2 -49 -2 -109q-2 -53 -2 -109l-2 -30v-107q-2 -61 -2 -110h29q25 0 38 -16.5t13 -37t-13.5 -37t-37.5 -16.5h-29v-141q0 -106 2 -246.5t8 -318.5h25q27 0 39 -16.5t12 -37t-12 -37t-39 -16.5h-166q-25 0 -38 16.5t-13 37t13.5 37t37.5 16.5h35 q-6 178 -8 318t-2 247v141h-29q-25 0 -38 16.5t-13 37t13 37t38 16.5h29q0 49 2 110v107l2 30q0 55 2 109q0 59 2 109q-41 2 -83 4t-83 6q2 -10 2 -21l2 -37q2 -10 2 -20v-4q0 -20 -15.5 -34.5t-37.5 -14.5q-23 0 -37 15t-16 38z" />
<glyph unicode="U" horiz-adv-x="1032" d="M96 1438.5q0 19.5 13.5 37t37.5 19.5l172 6h7q20 0 32.5 -15.5t12.5 -34.5t-13.5 -36.5t-38.5 -19.5h-10l-22 -2h-11q2 -109 4.5 -230t4.5 -229h20q25 0 38 -16.5t13 -37t-13 -37t-38 -16.5h-18q2 -59 3 -116.5t1 -114.5v-92q0 -53 6 -108.5t19.5 -109t39 -94t63.5 -62 t87 -21.5h16q61 4 101.5 39.5t64 91t33.5 123t12 122t2 93.5v53v55v47v37q0 18 2 37q-2 0 -4 -2h-4q-2 0 -4 -2q-6 -2 -12 -2q-16 0 -31.5 9t-22.5 32q-2 6 -2 12q0 12 8.5 29.5t30.5 21.5l43 6q2 111 3 236t3 235q-8 0 -14 -2q-25 0 -38 16.5t-13 36t13.5 37t37.5 19.5h31 q70 0 129 -14q25 -6 31 -21.5t6 -26.5q0 -8 -3 -21t-17.5 -24.5t-30.5 -11.5q-6 0 -15 2q-6 0 -8 2v-229q0 -121 -2 -230h18q25 0 38.5 -17t13.5 -37.5t-13.5 -36t-38.5 -15.5l-8 8h-20q-2 -72 -3 -143.5t-5 -143.5t-15.5 -164t-44.5 -172.5t-91 -133t-148 -52.5h-15 q-96 4 -158.5 46t-100.5 106.5t-55.5 144.5t-19.5 162q-4 92 -5 181t-3 181h-24q-25 0 -38.5 16.5t-13.5 37t13.5 37t38.5 16.5h22q-2 106 -3 226t-3 227h-23h-6q-20 0 -32.5 15t-12.5 34.5z" />
<glyph unicode="V" horiz-adv-x="1011" d="M98 1427.5q0 20.5 13.5 37t38.5 16.5h139q25 0 38 -16.5t13 -37t-13.5 -37t-37.5 -16.5h-10q16 -113 33.5 -244t39.5 -241l43 -6q23 -4 31 -20.5t8 -28.5q0 -8 -2 -15q-6 -20 -20.5 -28.5t-28.5 -8.5h-6q29 -131 58.5 -260t64.5 -258q61 260 116 522h-4q-20 0 -34.5 16.5 t-14.5 37.5q0 23 15.5 37t37.5 16q6 0 12.5 1t10.5 1q23 113 44.5 245t39.5 244q-8 0 -12 -2h-6q-20 0 -31.5 15.5t-11.5 35t13 37t38 19.5q20 2 43 2q57 0 118 -12q25 -6 31 -21.5t6 -25.5q0 -8 -3 -21.5t-17 -25t-31 -11.5q-6 0 -14 2h-4l-4 2h-4q-18 -109 -38 -235.5 t-42 -235.5h6h4q20 0 34.5 -16.5t14.5 -38.5l-4 -4q0 -23 -15.5 -37t-37.5 -16q-10 0 -31 -4q-41 -193 -83 -380.5t-89 -377.5q-4 -18 -18.5 -27.5t-32 -9.5t-31.5 9t-20 28q-53 188 -98.5 375.5t-84.5 377.5h-16h-6q-20 0 -32.5 14.5t-12.5 34t11 37t36 21.5 q-10 55 -20.5 115.5t-19.5 124t-17.5 125t-16.5 116.5h-24q-25 0 -38.5 16.5t-13.5 37z" />
<glyph unicode="W" horiz-adv-x="1320" d="M100 1454.5q0 20.5 13.5 36.5t38.5 16h133q25 0 38 -16t13 -36.5t-13.5 -37t-37.5 -16.5q23 -113 44 -244t44 -244h6l12 -2h6q23 -2 38.5 -16t15.5 -37t-14.5 -39t-35.5 -16h-4h-2q27 -125 54.5 -248t58.5 -246q23 129 45 255t45 255h-18q-25 0 -38.5 16.5t-13.5 37 t13.5 37t38.5 16.5h157q25 0 38 -16.5t13 -37t-13 -37t-38 -16.5h-12q23 -129 45.5 -255t44.5 -255q33 129 61.5 255t57.5 255h-23q-25 0 -38 16.5t-13 37t13.5 37t37.5 16.5h43q23 111 43.5 237.5t42.5 237.5q-4 -2 -8 -2q-8 -2 -14 -2q-16 0 -30.5 11t-17.5 24.5t-3 21.5 q0 10 6 25.5t31 21.5q41 10 81 10q47 0 99 -12q25 -6 31 -21.5t6 -25.5q0 -8 -4.5 -22.5t-17.5 -24.5t-28 -10q-8 0 -16 2q-6 0 -8 2q-23 -109 -43.5 -236t-42.5 -235h6q25 0 38 -16.5t13 -37t-13 -37t-38 -16.5h-29q-37 -180 -78.5 -357t-89.5 -355l-4 -5h8h7 q20 0 32.5 -15t12.5 -34.5t-13.5 -37t-38.5 -19.5q-37 -2 -60 -3t-36 -1q-25 0 -47 2q-25 0 -38 17.5t-13 37t13.5 35.5t37.5 16h12q-20 113 -40.5 224.5t-43.5 224.5q-20 -113 -40.5 -224.5t-40.5 -224.5q27 0 39 -16t12 -36.5t-12.5 -37t-38.5 -16.5h-123 q-25 0 -38.5 16.5t-13.5 36t12.5 36.5t37.5 17q-47 178 -88 353.5t-80 355.5h-4l-13 2h-4q-23 2 -38 16.5t-15 36.5q0 20 13.5 37t33.5 17h4q-10 55 -21.5 115.5t-21.5 124t-21.5 125t-21.5 116.5h-24q-25 0 -38.5 16.5t-13.5 37z" />
<glyph unicode="X" horiz-adv-x="1034" d="M96 55q0 23 15.5 36t38.5 18q12 0 20 2q117 356 262 714h-6h-6q-20 0 -32.5 14.5t-13.5 24.5t-1 13q0 18 11 33.5t36 19.5q-43 111 -89 227.5t-93 224.5h-27q-25 0 -38 16.5t-13 37t13 37t38 16.5h55q6 2 13 2q6 0 12 -2h37q23 0 35 -13.5t14 -24.5t2 -15q0 -12 -5 -25.5 t-22 -21.5q41 -92 79 -192.5t75 -192.5q39 94 80 194t84 193q-25 0 -38.5 16t-13.5 36.5t13.5 37t38.5 16.5h135q25 0 38 -16.5t13 -37t-13.5 -36.5t-37.5 -16h-17q-51 -111 -100 -232t-96 -233q4 -2 10 -2t12 -2q23 -4 31 -22.5t8 -31.5q0 -6 -2 -12q-6 -23 -21.5 -31 t-29.5 -8q-8 0 -14 2h-6q72 -178 139 -354t137 -354h25q25 0 38 -16.5t13 -37t-13.5 -37t-37.5 -16.5l-7 -2h-122q-25 0 -37.5 14.5t-13.5 25.5t-1 13q0 14 8.5 29.5t28.5 21.5q-59 154 -118.5 306.5t-118.5 306.5q-59 -154 -114.5 -308.5t-106.5 -310.5h6q23 -4 31 -20.5 t8 -28.5q0 -8 -2 -14q-6 -23 -21.5 -32t-32.5 -9q-6 0 -12 2q-27 4 -44 5t-28 1q-16 0 -34 -2h-9q-16 0 -30.5 15.5t-14.5 37.5z" />
<glyph unicode="Y" horiz-adv-x="1017" d="M100 1446.5q0 19.5 12.5 35t32.5 15.5h7l153 -6q25 -2 37 -17.5t13 -25.5t1 -12q0 -16 -10 -33t-31 -19q47 -90 95.5 -199.5t101.5 -197.5q27 45 53.5 97.5t53 105.5t52 105.5t52.5 99.5q-33 14 -33 47q0 20 14.5 36.5t30.5 16.5h8q23 -2 45 -4l29 -4q25 0 45 -4 q23 -4 38 -17.5t15 -35.5q0 -20 -14 -37t-31 -17h-8q-4 2 -8 2h-6q-6 0 -10 2q-31 -55 -63 -116.5t-63.5 -124t-64.5 -124t-65 -114.5h32q25 0 38.5 -16.5t13.5 -37t-13.5 -36.5t-38.5 -16h-45v-689h27q25 0 38 -16t13 -36.5t-13 -37t-38 -16.5h-139l-2 -10 q-25 0 -38.5 16.5t-13.5 36.5t13.5 36.5t38.5 16.5h6v688h-33q-25 0 -38 16.5t-13 37t13 37t38 16.5h14q-35 55 -66.5 118.5t-62.5 129.5l-61 129q-31 63 -62 118q-10 2 -19 3.5t-19 1.5q-25 2 -38.5 19t-13.5 36.5z" />
<glyph unicode="Z" horiz-adv-x="890" d="M102 72q0 12 4 24q76 180 150 359.5t147 359.5l-36 6q-25 4 -31 19.5t-6 25.5q0 8 3 21.5t18.5 25t33.5 11.5h10q10 -4 22.5 -5t22.5 -4q45 109 94.5 237t96.5 237l-197 -5q-98 -2 -196 -6v-32l2 -21v-33q0 -25 -16.5 -38t-36 -13t-37 13.5t-17.5 37.5v51l-2 35v52v6 q0 18 14.5 32.5t36.5 14.5l529 12h4q31 0 39 -19.5t8 -33.5q0 -12 -4 -25q-51 -119 -103.5 -258t-99.5 -258q8 0 15.5 -1t17.5 -1q25 0 38 -16.5t13 -37t-13.5 -36.5t-37.5 -16q-18 0 -37 1t-37 3q-72 -172 -141.5 -341t-141.5 -339q111 -2 221.5 -6.5t221.5 -6.5 q0 57 6 117q2 25 20.5 38t39 13t33.5 -11t13 -32v-6q-8 -61 -8 -123q0 -25 2 -49v2v-4q0 -20 -15 -34.5t-38 -14.5q-143 2 -285.5 8t-287.5 8q-35 0 -43.5 20.5t-8.5 35.5z" />
<glyph unicode="[" horiz-adv-x="593" d="M102 849.5q0 20.5 13.5 37t38.5 16.5h30q0 59 -1 129t-2 140.5t-2 140t-1 129.5q0 23 15.5 38t37.5 15h209l-4 -4q25 0 38 -16.5t13 -37t-13 -37t-38 -16.5h-153q0 -51 2 -112v-113l2 -31q0 -57 2 -110v-115h22q25 0 38 -16.5t13 -37t-13 -36.5t-38 -16h-20l6 -701 q35 4 70.5 6t70.5 4q25 0 38 -16t13 -35.5t-13 -37t-38 -17.5q-49 -2 -97 -5t-95 -5h-6q-18 0 -32.5 14t-14.5 37l-7 756h-32q-25 0 -38.5 16t-13.5 36.5z" />
<glyph unicode="\" horiz-adv-x="552" d="M104 1403v10q0 18 11.5 33.5t25 18.5t21.5 3q10 0 25.5 -6t19.5 -30q59 -340 119.5 -676t122.5 -676v-10q0 -18 -11.5 -34t-25 -19t-21.5 -3q-10 0 -25.5 6.5t-19.5 30.5q-61 340 -122 676t-120 676z" />
<glyph unicode="]" horiz-adv-x="593" d="M102 1429.5q0 20.5 13.5 38t38.5 17.5q47 2 96 5t96 5q23 0 38 -15.5t15 -37.5q0 -59 2 -129v-127l2 -35q0 -63 3 -125v-131v4h36q25 0 38.5 -16.5t13.5 -37t-13.5 -36.5t-38.5 -16h-34q2 -186 3 -373t3 -373v-6q0 -18 -14.5 -32.5t-37.5 -14.5h-206q-25 0 -38.5 16.5 t-13.5 37t13.5 36.5t38.5 16h153q-2 174 -3 345t-3 346h-18q-25 0 -38.5 16t-13.5 36.5t13.5 37t38.5 16.5h16v117q-2 55 -2 112l-2 33v113q-2 63 -2 117q-35 -4 -71 -6.5t-70 -4.5q-25 0 -38.5 15.5t-13.5 36z" />
<glyph unicode="^" horiz-adv-x="561" d="M100 999q0 6 2 15q25 106 58 209.5t96 195.5l-4 2q18 25 45 25q4 0 22.5 -2t30.5 -37q68 -178 105 -363v-10q0 -18 -11.5 -33.5t-24.5 -18.5t-22 -3q-10 0 -25.5 6t-19.5 31q-14 63 -29.5 124.5t-33.5 123.5q-29 -66 -47.5 -136.5t-34.5 -142.5q-6 -25 -21.5 -31 t-27.5 -6q-8 0 -21.5 3t-25 17.5t-11.5 30.5z" />
<glyph unicode="_" horiz-adv-x="901" d="M102 70.5q0 19.5 12.5 35t32.5 15.5h7q51 -4 131 -4h166q86 0 166.5 -1t132.5 -3q25 -2 38 -19.5t13 -37t-12.5 -35t-32.5 -15.5h-6q-51 2 -132 3t-167 1h-166q-80 0 -131 4q-25 2 -38.5 19.5t-13.5 37z" />
<glyph unicode="`" horiz-adv-x="462" d="M102 1362q0 6 4.5 20.5t19.5 25.5t34 11q2 0 12 -1t25 -21q23 -37 41 -67l34.5 -57.5t35 -56t42.5 -61.5q10 -16 10 -31q0 -6 -4 -19t-20.5 -24.5t-35.5 -11.5t-34 23q-41 72 -82.5 133t-72.5 108q-8 14 -9 29z" />
<glyph unicode="a" horiz-adv-x="813" d="M100 614q0 8 5.5 23.5t23.5 26.5q12 8 27 8q6 0 18 -3t27 -20q45 39 100 73t97 43t67 9q33 0 76 -13t86 -73q43 -61 56 -134t19 -146l3 -33q4 -51 4 -99q0 -35 -4.5 -88t-18.5 -143q-4 -23 -19.5 -31t-29.5 -8q-4 0 -15.5 2t-25.5 14.5t-14 30.5v6q2 6 2 13v6q0 6 2 12 q-45 -18 -93.5 -34.5t-82 -20.5t-52.5 -4q-29 0 -65.5 7t-75.5 42q-67 58 -67 131q0 6 2 48t67 108q29 29 71 47t74.5 22t53.5 4q25 0 59.5 -5t71.5 -23q14 -6 26.5 -14.5t22.5 -18.5q-4 35 -8 68.5t-12 66.5t-22.5 64.5t-37 53t-43 27t-33.5 5.5q-23 0 -49 -11 q-41 -16 -74.5 -40.5t-64.5 -55.5q2 -2 2 -4l4 -4q2 -2 2 -4q8 -12 8 -25q0 -8 -5 -23.5t-23 -25.5q-12 -6 -25 -6q-6 0 -20.5 4t-24.5 23q-12 18 -25 36l-14 25q-12 18 -24 37q-8 12 -9 24zM252 207q0 -23 14.5 -42.5t46.5 -25.5q23 -4 47 -4q45 0 91 17h2q33 10 64.5 23 t64.5 28q-6 33 -21.5 59.5t-46.5 42.5q-47 27 -106.5 27t-106.5 -35q-20 -16 -33.5 -40t-14.5 -36t-1 -14z" />
<glyph unicode="b" horiz-adv-x="817" d="M98 1055.5q0 19.5 13.5 36t38.5 16.5l135 -6q25 -2 38 -19.5t13 -37t-11.5 -35t-31.5 -15.5h-6h-25q2 -92 3 -184t1 -184q51 43 106.5 66.5t112.5 23.5h19q49 -4 88 -29.5t65.5 -64.5t41 -85t16.5 -92h-2v-30q0 -39 -4 -90.5t-23.5 -107.5t-53.5 -103t-85 -74 q-63 -31 -123 -31q-14 0 -57 5t-103 53v-7q0 -25 -16.5 -38t-37 -13t-36.5 13.5t-16 37.5q4 188 4 377q0 47 -1 187.5t-5 375.5h-6q-25 0 -38.5 17.5t-13.5 37zM266 213q8 -8 13 -14q31 -41 68.5 -61.5t76.5 -20.5q4 0 26.5 1t59.5 25.5t59 73.5l9 4q23 53 31.5 100.5 t8.5 79.5q0 25 -4 50q-4 35 -17 69.5t-36.5 58t-45 29.5t-34.5 6q-23 0 -49 -10q-47 -18 -88 -51t-72 -74l-4 -4v-131q0 -66 -2 -131z" />
<glyph unicode="c" horiz-adv-x="849" d="M98 344q0 18 2 37q12 115 64.5 211t157.5 145q57 27 118 27q20 0 72.5 -8t118.5 -62q6 6 12 11.5t10 11.5q16 16 35 16q2 0 13.5 -1t25.5 -16.5t16 -27.5t2 -14q0 -18 -16 -35l-92 -98h-4q-16 -16 -33 -17q-4 0 -15.5 2t-24.5 15.5t-15 26t-2 16.5q0 16 14 32 q-51 39 -104 39q-10 0 -46 -5t-87.5 -48t-82 -108.5t-30.5 -131.5v-8q0 -37 12 -79t36 -76.5t55.5 -56t70.5 -21.5h6q55 4 99 30.5t79 69.5l-12 12q-14 18 -15 29.5t-1 13.5q0 18 16 35q14 14 26.5 15.5t14.5 1.5q20 0 35 -17l37 -49q18 -25 36 -47q14 -18 15.5 -30.5 t1.5 -14.5q0 -20 -14 -35q-14 -14 -25.5 -15t-13.5 -1q-18 0 -33 14q-66 -74 -132.5 -99.5t-111.5 -25.5q-47 0 -94 19q-49 18 -88 56t-64.5 87t-35 94t-9.5 80z" />
<glyph unicode="d" horiz-adv-x="821" d="M98 395q0 29 4 56q6 45 21.5 94t44.5 90t67.5 63.5t83.5 22.5h17q63 -4 116.5 -27.5t100.5 -62.5q0 92 1 184t3 184h-25h-6q-20 0 -32.5 15.5t-12.5 35t13.5 37t37.5 19.5l136 6h-2h2q25 0 37 -16t12 -36t-13.5 -37t-37.5 -17h-7q-4 -236 -4 -470.5t2 -469.5 q0 -25 -16 -38.5t-35.5 -13.5t-37 13.5t-17.5 38.5v6q-66 -51 -111 -54.5t-53 -3.5q-72 0 -141 47q-43 29 -73 75t-48.5 99.5t-22.5 94.5t-4 65zM211 412q0 -43 8 -102.5t47 -112.5q29 -41 65 -58.5t70 -17.5q2 0 21.5 1t54.5 22.5t64 60.5q4 6 12 14l2 -6v262l-4 4 q-33 43 -80 82t-102 49q-12 2 -25 2q-23 0 -45.5 -9t-42.5 -32.5t-30.5 -55.5t-12.5 -64q-2 -18 -2 -39z" />
<glyph unicode="e" horiz-adv-x="800" d="M106 430q0 33 7.5 89t46.5 122t112 100q51 25 90 27t48 2q61 0 116.5 -20.5t85 -64.5t29.5 -95q0 -23 -4 -47q-14 -82 -60.5 -127t-96.5 -58.5t-95 -13.5q-20 0 -66.5 5t-105.5 28q4 -49 21.5 -93t50.5 -77q59 -61 100 -67.5t51 -6.5q57 0 109 45l-6 6q-16 16 -17.5 28.5 t-1.5 14.5q0 20 17 37q16 16 27 17.5t14 1.5q18 0 32 -17l37 -41q18 -20 37 -43l4 -2q14 -16 16 -30l1 -13q0 -23 -17 -39q-14 -16 -25.5 -17t-13.5 -1q-18 0 -35 16q-53 -49 -103 -62.5t-85 -13.5q-29 0 -74 10.5t-100 52.5t-90 110q-33 63 -44.5 127.5t-11.5 109.5z M221 498q2 -2 6 -2q29 -12 76 -25.5t94 -13.5t85 19.5t48 72.5q4 16 5 31q0 41 -30 59t-73 18q-6 0 -35.5 -2t-82 -29.5t-70.5 -66.5v2q-14 -31 -23 -63z" />
<glyph unicode="f" horiz-adv-x="673" d="M106 720.5q0 20.5 13.5 38t38.5 17.5h14q4 41 13.5 80t27.5 74q31 57 75 90t84 42t72 9q23 0 61 -5t93 -26q0 2 1 2t1 2q12 18 26.5 22.5t22.5 4.5q12 0 25 -6l-2 -2q16 -10 21 -26.5t5 -24.5q0 -12 -6 -23q-16 -27 -29.5 -53.5t-23.5 -54.5q-8 -25 -23.5 -31t-25.5 -6 q-8 0 -22.5 4t-25 17.5t-10.5 25.5q0 8 5 18l12 37q-51 18 -82 20.5t-35 2.5q-51 0 -88 -39q-31 -33 -46 -73t-19 -81l110 6q25 0 38 -16t13 -35.5t-13 -37t-38 -17.5l-117 -6v-25q2 -137 2 -272t2 -273q2 2 7 2q6 2 14 2q14 0 29.5 -8t21.5 -30q2 -8 2 -17q0 -12 -7 -28.5 t-30 -20.5q-35 -6 -70.5 -9t-72.5 -7h-4q-20 0 -34.5 15t-14.5 38t15 37t38 16h6q-2 121 -2 238.5t-2 236.5q0 25 -1 50.5t-1 54.5h-12q-27 0 -39.5 15t-12.5 35.5z" />
<glyph unicode="g" horiz-adv-x="753" d="M2 -199q0 18 16 35q25 27 47.5 53.5t45.5 55.5q14 16 27.5 21t21.5 5q12 0 24 -6q16 -10 21.5 -25.5t5.5 -23.5q0 -12 -8 -25l-25 -32q27 -23 58.5 -40.5t60.5 -24.5t51 -7q10 0 34 3t56 26q35 23 54.5 54.5t28.5 66t11.5 73.5t4.5 76q2 14 2 29v18q0 12 2 27 q-53 -51 -114.5 -81t-129.5 -30h-16q-49 2 -88 28.5t-66 65.5t-42 85t-17 91v27q0 39 5 92.5t24.5 109.5t52 103t86.5 74q61 31 120 31q18 0 65.5 -8.5t110.5 -61.5q-2 4 -2 12v7q0 20 15.5 32.5t35 12.5t37 -13.5t19.5 -38.5h-8q14 -184 14 -368q0 -61 -2 -123 q-2 -29 -2 -62q0 -16 1 -29.5t1 -23.5q0 -41 -4 -86t-14.5 -93t-34.5 -87q-43 -68 -102.5 -101.5t-97.5 -35.5t-48 -2q-57 0 -118.5 20.5t-117.5 67.5l-12 -13q-16 -16 -35 -16q-2 0 -13 1t-24.5 14.5t-15.5 25.5t-2 14zM166 356q0 -20 2 -43q4 -35 17.5 -69.5t36 -58 t44 -29.5t33.5 -6q23 0 49 10q47 18 87 51t71 74v-2q10 12 31 20v117q0 57 -2 117q-25 4 -37 24q-31 41 -70 61.5t-80 20.5q-2 0 -23.5 -1t-58.5 -25.5t-59 -73.5q-25 -53 -33 -101.5t-8 -85.5z" />
<glyph unicode="h" horiz-adv-x="890" d="M106 1060.5q0 20.5 13.5 37t38.5 16.5h116q25 0 37.5 -15.5t13.5 -25.5t1 -12q0 -18 -11.5 -33.5t-33.5 -17.5q4 -106 6 -212l4 -212q33 51 76 92q20 18 48.5 32.5t59.5 22.5t62.5 8t58.5 -14q35 -18 59.5 -52t42 -74t27.5 -83t16 -78q12 -84 14.5 -142t2.5 -95 q0 -47 -2 -97l6 -4q33 -14 33 -49q0 -23 -15.5 -38t-38.5 -15h-86q-23 0 -38 15.5t-15 37.5q0 23 15.5 38t37.5 15h4q2 57 3 115q0 43 -2.5 116t-36.5 169q-6 14 -14.5 37.5t-23 45t-29.5 31t-30 9.5q-10 0 -20 -4q-35 -10 -65.5 -32t-51.5 -54q-35 -53 -52.5 -111.5 t-31.5 -118.5l-2 -2l-2 -4l-2 -2q2 -53 3 -103.5t3 -103.5h25q25 0 38 -16.5t13 -37t-13.5 -36.5t-37.5 -16h-142q-25 0 -38 16t-13 36.5t13.5 37t37.5 16.5h11q-6 229 -12.5 456.5t-12.5 457.5h-16q-25 0 -38.5 16t-13.5 36.5z" />
<glyph unicode="i" horiz-adv-x="466" d="M106 61q0 23 15.5 36.5t38.5 17.5q8 2 14 2h8q6 0 15 2q-2 135 -3 270t-6 270h-10q-25 0 -38 16.5t-13 37t13.5 37t37.5 16.5h129q25 0 38 -16.5t13 -37t-13 -37t-38 -16.5h-12l6 -546q16 -4 27 -7l2 -4q25 -6 31 -21t6 -26q0 -8 -3.5 -21.5t-17.5 -24.5t-31 -11 q-6 0 -14 2q-47 10 -98 10q-20 0 -43 -2h-8q-16 0 -31 16.5t-15 36.5zM156 938q0 31 21.5 52.5t51.5 21.5h15q31 0 52 -21.5t21 -52.5t-21.5 -52.5t-51.5 -21.5h-15q-31 0 -52 21.5t-21 52.5z" />
<glyph unicode="j" horiz-adv-x="655" d="M-106 -145q0 12 8 24q43 61 104 105q12 10 27 10q6 0 21.5 -5t25.5 -24q8 -12 8 -26q0 -4 -3 -15.5t-17 -25.5q18 -35 50 -57.5t54.5 -25.5t30.5 -3q27 0 55.5 13t48.5 58q29 61 37 133t14 140q14 129 16.5 214t2.5 128q0 86 -4 172h-11q-25 2 -38 19.5t-13 36.5 t11.5 34.5t31.5 15.5h6q37 -2 73 -3t71 -3h2q25 -2 38 -19.5t13 -37t-12.5 -34.5t-32.5 -15h-6q-8 0 -14.5 1t-12.5 1q2 -78 2 -156q0 -39 -1 -118t-11 -195q-4 -41 -7 -90.5t-9.5 -98.5t-18.5 -95t-37 -83q-37 -57 -92 -88t-87 -32t-36 -1q-53 0 -105 25.5t-87 83.5 q-12 -14 -24.5 -17.5t-18.5 -3.5q-12 0 -25 8q-18 10 -23 25.5t-5 24.5zM334 920q0 31 21.5 52t52.5 21h14q31 0 52.5 -21.5t21.5 -51.5q0 -31 -21.5 -52.5t-52.5 -21.5h-14q-31 0 -52.5 21.5t-21.5 52.5z" />
<glyph unicode="k" horiz-adv-x="800" d="M111 53.5q0 20.5 13 36.5t38 16h24q4 233 9.5 463t9.5 461h-8q-6 -2 -13 -2q-16 0 -31.5 9.5t-21.5 31.5q-2 6 -2 14q0 12 8 28.5t31 21.5q49 10 98 10q47 0 94 -10q25 -4 31 -19.5t6 -26.5q0 -8 -3 -21t-17.5 -24.5t-32.5 -11.5h-10q-16 4 -23 4q-4 -125 -5 -248.5 t-5 -248.5l29 20q14 10 24 21l191 165q0 2 -4 7q-8 14 -9 26q0 8 5.5 21.5t20.5 22.5t32 9q4 0 17.5 -2t25.5 -22q39 -66 61 -139q4 -10 4 -19q0 -12 -10 -25.5t-24.5 -17.5t-22.5 -4q-10 0 -25.5 6t-23.5 31q-4 4 -4 8q-27 -23 -52.5 -44t-52.5 -44q-29 -25 -66.5 -51.5 t-66.5 -54.5q27 -41 65 -79t68 -73q29 -33 59.5 -63.5t59.5 -61.5l6 6q16 16 35 17q2 0 13.5 -1t27.5 -18l6 -6q16 -16 16.5 -37.5t-16.5 -38.5l-86 -86q-16 -16 -37.5 -16t-38.5 16q-16 16 -16 35l1 11q1 12 17 28l7 6q-102 104 -197 215l-40 41l-7 -240h41q27 0 39 -16 t12 -36.5t-12.5 -37t-38.5 -16.5h-172q-25 0 -38 16.5t-13 37z" />
<glyph unicode="l" horiz-adv-x="477" d="M104 1079.5q0 20.5 13.5 37t38.5 16.5h137q25 0 38 -16.5t13 -37t-13.5 -37t-37.5 -16.5h-21q4 -231 7 -460.5t8 -463.5q10 2 18 3t19 1h2h6q20 0 32.5 -15t12.5 -34.5t-13.5 -37t-37.5 -19.5l-78 -4q-39 -2 -80 -6h-6q-20 0 -31.5 15t-11.5 34.5t13 37t38 19.5q4 2 12 2 q-4 233 -7 464t-7 464h-12q-25 0 -38.5 16.5t-13.5 37z" />
<glyph unicode="m" horiz-adv-x="1259" d="M100 61.5q0 20.5 13.5 37t38.5 16.5h4q2 145 4 288.5t6 288.5h-12q-25 0 -38.5 16.5t-13.5 37t13.5 37t38.5 16.5h114q25 0 37 -15.5t13 -25.5t1 -13q0 -18 -11 -33.5t-34 -17.5v-10l-2 -16v-11q23 35 50.5 63t57.5 40t60 12q4 0 24.5 -1t61.5 -23q45 -27 75 -67t48 -87 q20 45 50 83t66 60.5t61.5 25.5t35.5 3q35 0 74 -16q37 -16 62.5 -44t42 -63t25.5 -74t15 -75q14 -98 17.5 -171t3.5 -122t-2 -99h6l-2 4q25 0 38 -16t13 -36.5t-13.5 -37t-37.5 -16.5h-123q-27 0 -40 16.5t-13 37t13 36.5t40 16h12q2 70 2 142q0 35 -1 107.5t-25 172.5 q-4 16 -10.5 38t-16.5 41.5t-25.5 32.5t-37.5 17q-8 2 -17 2q-18 0 -35.5 -8t-34 -25.5t-28.5 -39t-21 -39.5q-23 -47 -38 -94t-19 -101q2 -29 2 -55v-55q20 -2 33.5 -16.5t13.5 -37.5t-15 -38t-38 -15h-92q-23 0 -38 15.5t-15 37.5q0 18 12 33t31 19q2 20 2 41q0 20 -2 41 q-2 4 -2 12v8q-2 55 -9.5 110.5t-23.5 102.5q-4 14 -12.5 33.5t-20.5 36t-27.5 24.5t-29.5 8h-9q-47 -6 -73.5 -40.5t-42.5 -73.5q-23 -53 -39.5 -103.5t-18.5 -109.5l-6 -25l-6 -190q25 0 37 -16.5t12 -35.5q0 -2 -1 -12t-14 -26.5t-38 -16.5h-104q-25 0 -38.5 16.5 t-13.5 37z" />
<glyph unicode="n" horiz-adv-x="841" d="M98 65.5q0 20.5 13.5 37t38.5 16.5h4q2 145 4 288.5t6 288.5h-12q-25 0 -38.5 16.5t-13.5 37t13.5 37t38.5 16.5h114q25 0 37 -15.5t13 -25.5t1 -12q0 -18 -11 -34t-34 -18v-10l-2 -16v-10q45 63 91.5 84.5t76.5 21.5q39 0 82 -18q37 -16 62.5 -44t42 -63t25.5 -74 t16 -75q14 -94 17 -172t3 -142v-63l-2 -2h4q20 0 34.5 -16.5t14.5 -39.5t-15 -37t-38 -16l-104 -6h-5q-20 0 -34.5 16.5t-14.5 38.5q0 23 15.5 37t38.5 17q2 59 2 120q0 45 -2 122t-27 177q-4 16 -10 38t-16.5 41.5t-26 32.5t-35.5 17q-8 2 -16 2q-18 0 -37 -8t-35.5 -25.5 t-27.5 -39t-19 -39.5q-23 -53 -39.5 -103.5t-18.5 -109.5q-4 -18 -8 -25l-6 -190q25 0 37 -16.5t12 -34.5q0 -2 -1 -12.5t-14 -27t-38 -16.5h-104q-25 0 -38.5 16.5t-13.5 37z" />
<glyph unicode="o" horiz-adv-x="763" d="M98 381q0 66 13 121q0 4 4 12q18 55 51 107.5t78 86t80.5 40t50.5 6.5q43 0 88 -19l-2 -2q61 -29 104 -87t65.5 -131t24.5 -119t2 -60q0 -59 -12 -111q-16 -66 -51 -115t-83 -77.5t-82 -30.5t-42 -2q-51 0 -106 20q-61 25 -100.5 81.5t-60 126t-21.5 108.5t-1 45z M205 375q0 -41 6 -87t26.5 -91t57.5 -66q43 -25 65.5 -26t26.5 -1q37 0 68.5 16.5t55.5 49.5t32 80h2q6 35 7 63.5t1 36.5q0 43 -6 90t-23.5 92.5t-48.5 69.5q-47 37 -69.5 39t-28.5 2q-33 0 -64.5 -19.5t-57.5 -56.5t-40 -82q-8 -35 -9 -66.5t-1 -43.5z" />
<glyph unicode="p" horiz-adv-x="819" d="M104 708.5q0 20.5 13.5 38t38.5 17.5q16 2 30 2q16 0 39 -2t54 -6q23 -4 29.5 -21.5t6.5 -29.5q0 -6 -2 -15l-6 -12q61 27 99 28t45 1q63 0 116 -21v-2q39 -16 68 -48t47 -73t25.5 -81t7.5 -70v-17q-4 -90 -40 -166.5t-96.5 -129t-115.5 -65.5t-88 -13q-49 0 -101 16 q-2 -72 -3 -140.5t-1 -140.5h6l13 2h6h6q20 0 32.5 -15t12.5 -34.5t-13.5 -37t-37.5 -19.5l-135 -6h-6q-20 0 -31.5 15t-11.5 34.5t13 37t38 19.5h4q2 227 3 377t1 225q0 150 -2 301h-12q-25 0 -38.5 15.5t-13.5 36zM272 152q4 0 13 -5v-2q43 -18 84 -18q20 0 59 8t85 46 t70.5 94.5t24.5 113.5v10q-2 35 -10 73t-26.5 68.5t-45 46t-61.5 15.5h-16q-47 -6 -93.5 -18.5t-76.5 -51.5l-7 -6v-374z" />
<glyph unicode="q" horiz-adv-x="747" d="M98 297q0 37 6 70q6 39 17.5 84t31 87t49 75.5t70.5 50.5q41 18 70 20t41 2q35 0 72 -8q-12 8 -16.5 20.5t-4.5 20.5t4 19.5t16.5 23.5t32.5 12q23 2 45 2q12 0 34 -1t57 -3q25 -2 38 -19.5t13 -37t-11.5 -34.5t-31.5 -15h-6q-4 2 -13 2q-2 -121 -2 -234v-250 q0 -109 -4 -180.5t-4 -107.5q0 -72 8 -144q33 10 64 21.5t61 27.5l-6 2q12 6 23 7q10 0 25.5 -7.5t24.5 -21.5t9 -29q0 -6 -2 -18.5t-25 -22.5q-51 -23 -102 -42t-104 -34q-6 -2 -13 -2q-14 0 -31.5 8.5t-21.5 30.5q-16 92 -17 147.5t-1 74.5q0 74 4 147q-76 -29 -116 -30 t-42 -1q-78 0 -145 47q-35 25 -55.5 62t-30 79t-10.5 67.5t-1 31.5zM201 280.5q0 -28.5 5 -56t18.5 -50t37.5 -35.5q39 -22 80 -22h4q14 0 50 6t87 31l13 6v26h-2v346l-7 7q-23 25 -51 35t-55 10q-4 0 -22.5 -1t-47 -16.5t-47.5 -42.5q-57 -90 -61 -192q-2 -23 -2 -51.5z M479 670q2 0 4 -2l9 -2q2 0 2 -2v6h-15z" />
<glyph unicode="r" horiz-adv-x="765" d="M98 51.5q0 20.5 13.5 37.5t38.5 17h6q2 96 2 193q0 49 -1 144.5t-5 240.5h-5q-20 0 -33.5 16.5t-13.5 36.5q0 23 15.5 37t38.5 17q23 2 43 4l30 2q23 0 43 2h4q20 0 35 -16.5t15 -39.5t-15.5 -37t-38.5 -16q-8 0 -12 -2v-20q59 47 141 67q25 6 50 6q47 0 91 -31.5 t66 -99.5h6q14 0 29.5 -11t20.5 -28h-3q2 -8 3 -16q0 -12 -9.5 -27.5t-31.5 -21.5q-16 -6 -35 -10l-23 -9q-18 -4 -35 -10q-8 -2 -16 -2q-12 0 -28.5 9.5t-20.5 31.5q-2 8 -2 16q0 12 9 27.5t32 22.5q-18 47 -40 49t-28 2q-35 0 -74 -19q-39 -18 -59 -46.5t-39 -65.5 q2 -96 2 -195q0 -96 -2 -194h25q27 0 39 -16.5t12 -36t-13.5 -37t-37.5 -17.5q-27 -2 -51 -2l-35 -2q-25 0 -51 -2q-25 0 -38.5 15.5t-13.5 36z" />
<glyph unicode="s" horiz-adv-x="851" d="M100 174q0 2 1 12.5t18 26.5q23 27 46 51.5t46 48.5q14 16 33 17q2 0 13 -1t28 -18q16 -16 16 -32q0 -2 -1 -12.5t-15 -26.5l-4 -4l-2 -5q-2 -2 -5 -4q29 -27 63 -51t73 -35q18 -4 35.5 -5t23.5 -1q18 0 39.5 4t40 18.5t22.5 43.5q2 10 2 20q0 29 -15 52.5t-45 43 t-63.5 32.5t-58.5 28q-68 39 -91.5 84t-23.5 84q0 31 11 65q12 39 38.5 65.5t60.5 42t64.5 19.5t51.5 4q16 0 33 -2q23 -4 50 -10t50 -20l12 12q6 6 15 12q16 14 36 17q20 0 35 -15q14 -14 17 -37q0 -23 -17 -36q-23 -18 -35 -35t-26 -39q-10 -18 -24.5 -21.5t-20.5 -3.5 q-14 0 -27 6q-27 18 -27 45v7q-29 18 -63 18q-10 0 -39 -4t-61.5 -29.5t-34.5 -44t-2 -20.5q0 -31 45 -56q41 -23 81 -40t76 -44q25 -16 46.5 -42.5t37 -57.5t17.5 -50.5t2 -25.5q0 -25 -10 -49q-35 -84 -87.5 -113.5t-107.5 -29.5q-10 0 -47 3t-104.5 36t-120.5 78l-11 -11 q-14 -16 -34 -16l-12 1q-13 1 -27 17q-16 16 -17 33zM733 735l2 -2z" />
<glyph unicode="t" horiz-adv-x="653" d="M115 638.5q0 20.5 13 37t38 16.5h33q-2 43 -2 86q0 23 1 66t3 108h-6q-25 0 -38.5 17.5t-13.5 37t12.5 35t32.5 15.5h7l141 -6q25 -2 38 -19.5t13 -37t-11 -35t-34 -15.5h-6h-8l-17 2h-8q-2 -63 -3 -125.5t-1 -124.5q23 2 43 3t43 6h6q20 0 31.5 -13.5t11.5 -34t-13 -39 t-38 -20.5l-86 -6q2 -27 2 -55l2 -35q0 -27 2 -56q4 -61 7 -123.5t9 -123.5q4 -49 22.5 -75t37 -31t33.5 -5q14 0 36.5 6t53.5 25q-4 6 -6 11t-4 11q-4 8 -5 19q0 10 10.5 25.5t28.5 21.5q8 2 15 2q14 0 27.5 -9.5t23.5 -29.5q20 -45 53 -92l14 -6q10 -10 11 -25 q0 -6 -5.5 -21.5t-23.5 -25.5q-12 -8 -25 -8q-8 0 -21 5t-26 23q-4 4 -4 7q-78 -47 -164 -47q-39 0 -79 10q-31 6 -48.5 24.5t-26.5 41t-13.5 50t-6.5 52.5q-10 109 -16 215t-10 215h-35q-25 0 -38 15t-13 35.5z" />
<glyph unicode="u" horiz-adv-x="872" d="M96 696.5q0 20.5 13.5 37t37.5 16.5h138q25 0 38 -16.5t13 -37t-13.5 -37t-37.5 -16.5h-13q-2 -39 -4 -88t-2 -92q0 -20 1 -64.5t8.5 -109t27 -111.5t46 -64.5t52.5 -17.5q20 0 45 8q49 14 73 46t35 71t13 83t6 85l25 246h-12q-25 0 -38 16.5t-13 37t13 36.5t38 16h133 l-6 -2q25 0 38 -16t13 -36.5t-13.5 -37t-37.5 -16.5h-13l-24 -246q-4 -51 -5 -112.5t-22 -108.5q-35 -80 -96 -124t-143 -44h-9q-76 0 -123 34t-73.5 88t-36.5 123.5t-11 114.5t-1 62q0 53 3 112.5t5 110.5h-17q-25 0 -38 16.5t-13 37z" />
<glyph unicode="v" horiz-adv-x="788" d="M51 696.5q0 20.5 13.5 37t37.5 16.5h119q25 0 38 -16.5t13 -37t-13 -37t-38 -16.5h-6q23 -129 68 -253t120 -230q12 -20 25 -21q4 0 14.5 7.5t21.5 34t19 55.5l9 36q20 70 36 148q10 53 19.5 107.5t19.5 107.5q-16 4 -28.5 19.5t-12.5 33.5q0 23 15.5 37t38.5 16 q20 2 41 2q10 0 30.5 -1t50.5 -5h9q23 -2 38 -15t15 -36q0 -20 -14.5 -36.5t-34.5 -16.5h-4q-20 4 -31 4q-16 -109 -35.5 -215.5t-54.5 -210.5q-10 -29 -21.5 -63.5t-30 -64.5t-42 -46.5t-50.5 -16.5q-8 0 -18 3q-41 6 -71.5 32.5t-55.5 63.5t-43 78t-33 73 q-84 182 -116 373h-7q-25 0 -38 16.5t-13 37z" />
<glyph unicode="w" horiz-adv-x="1202" d="M98 698q0 6 2 13q6 23 21.5 31t30.5 8q8 0 14 -2q51 -8 102 -9q20 0 41 2h6q23 0 34 -15t11 -34.5t-13 -37t-38 -19.5h-22q8 -117 32.5 -241t79.5 -224q14 -27 29 -27q4 0 15.5 7.5t25.5 35t23.5 58t11.5 35.5q8 25 15 49t13 49q10 47 16.5 93t10.5 93q-8 -2 -24 -2h-5 q-20 0 -34.5 16.5t-14.5 38.5q0 23 15.5 37.5t38.5 16.5q35 2 67.5 3t65.5 3h4q20 0 34.5 -16.5t14.5 -38.5q0 -23 -14.5 -36.5t-36.5 -15.5q2 -59 9 -116.5t23 -116.5q6 -23 13.5 -53.5t17.5 -62.5t26.5 -58.5t39.5 -36.5q6 -2 12 -2q16 0 31.5 20.5t29 66.5t24.5 105.5 t18.5 120t12.5 113.5t7 88q-8 -2 -23 -2h-6q-23 0 -34 15.5t-11 35t13.5 36.5t37.5 19q27 2 52 2l34 2q25 0 52 3l-9 4h7q20 0 32.5 -15.5t12.5 -35t-13.5 -37t-38.5 -19.5h-8q-2 -43 -5 -109.5t-11 -140t-23.5 -146.5t-42 -128t-61.5 -81t-72 -26q-16 0 -33 4 q-35 6 -61.5 27t-45 47.5t-31.5 59t-23 63.5q-2 8 -5 14l-6 27q-2 8 -4 14l-24 -86q-8 -25 -21.5 -57.5t-34 -59t-42 -37t-37.5 -10.5q-14 0 -33 7q-39 12 -65.5 37.5t-45 57.5t-31 68.5t-22.5 73.5q-29 92 -47.5 184.5t-24.5 190.5l-43 6q-23 4 -31 22.5t-8 30.5z" />
<glyph unicode="x" horiz-adv-x="940" d="M104 95.5q0 19.5 12.5 33.5t33.5 14h6h8l22 -2h9q72 51 117.5 112.5t99.5 119.5q-55 72 -108.5 143.5t-102.5 147.5h-8l-15 2h-8q-25 2 -38 18t-13 34.5t12 33t33 14.5h6q37 -2 73 -3t70 -3q23 -2 36 -16.5t14.5 -23.5t1.5 -11q0 -14 -8.5 -29.5t-28.5 -20.5 q35 -53 72.5 -103t78.5 -101q43 53 85 106t83 107q-12 8 -16 20t-4 21q0 6 3 17t15 22.5t33 11.5h27q18 0 43.5 -2t56.5 -6l10 -7q23 -4 30 -18t7 -29q0 -8 -2 -16q-6 -20 -21.5 -28.5t-29.5 -8.5q-8 0 -15 2q-2 0 -3 1t-5 1q-55 -72 -110.5 -142.5t-112.5 -139.5l102 -131 q51 -66 101 -136h4l4 2h4h4q20 0 34.5 -15t14.5 -38t-15 -35t-38 -14q-33 -2 -62.5 -4t-58.5 -4h-4q-20 0 -34.5 15.5t-14.5 35.5q0 33 35 47q-35 51 -73 100.5t-77 96.5l-4 -4l-6 -4q-2 -2 -4 -5q-35 -41 -71 -80.5t-72 -78.5q18 -10 22 -23.5t4 -21.5q0 -10 -5 -22.5 t-18.5 -21t-25.5 -8.5q-8 0 -16 2q-66 20 -127 23q-25 0 -38.5 16.5t-13.5 36z" />
<glyph unicode="y" horiz-adv-x="833" d="M104 694q0 2 1 12.5t14.5 26t38.5 15.5h123q25 0 38 -16.5t13 -37t-13.5 -37t-37.5 -16.5h-25v-39q0 -41 3 -91t20 -110q6 -27 15 -60.5t22.5 -65t32 -59.5t46.5 -40q25 -12 45 -12q16 0 38 11t41.5 49t29.5 91.5t16 108.5q-2 45 -3 88t-3 88q0 10 4 23h-20q-25 0 -38 16 t-13 36.5t13 37t38 16.5h137l-2 2q25 0 38 -16.5t13 -37t-13.5 -36.5t-37.5 -16h-6q2 -47 2 -103.5t-6 -115.5q2 -74 2 -146v-147q0 -43 2 -81t2 -63t-2 -61.5t-13.5 -82.5t-37.5 -83q-37 -53 -89.5 -69.5t-95.5 -16.5q-18 0 -58 5t-92.5 40t-72.5 94l-12 -6q-8 -2 -17 -2 q-14 0 -27.5 10t-17.5 24.5t-4 22.5q0 10 6 25.5t31 21.5q59 18 111 52q12 8 24 8q8 0 23.5 -5t25.5 -24q6 -12 6 -24q0 -6 -4 -20.5t-22 -27.5q-8 -6 -25 -14q14 -45 49 -61.5t66 -16.5q10 0 36.5 4.5t60.5 34t36 78.5q2 51 2 102v29q0 51 2 103q-55 -51 -137 -52 q-59 0 -103 30t-76 79t-51.5 111.5t-29.5 128t-13 116.5t-3 86v35q-23 2 -34.5 17.5t-11.5 33.5z" />
<glyph unicode="z" horiz-adv-x="759" d="M37 694q0 16 9 31.5t32 22.5q6 2 12 2q12 0 29.5 -8.5t21.5 -30.5q2 -2 2 -4l2 -9q2 -2 2 -4q72 2 142 2q35 0 105.5 -1t174.5 -11q29 -2 42.5 -20.5t13.5 -32.5q0 -12 -9 -27q-76 -133 -165 -254t-187 -239h72t88 1t125 7v6l2 12v6l-6 -2q0 25 17.5 38.5t36.5 13.5 t35.5 -12.5t16.5 -39.5q-2 -37 -6 -73.5t-14 -71.5q-6 -25 -20.5 -32t-26.5 -7q-6 0 -17.5 2t-25 15.5t-13.5 35.5q-96 -6 -150 -7t-67 -1q-82 0 -164 6q-35 2 -42 21.5t-7 29.5q0 20 15 39q98 117 190 235t172 247q-123 6 -246 6h-61v-11q0 -16 -11.5 -28t-23.5 -15.5 t-18 -3.5q-12 0 -27.5 7.5t-21.5 29.5q-10 29 -16.5 58.5t-10.5 58.5q-2 6 -2 12z" />
<glyph unicode="{" horiz-adv-x="679" d="M102 679q0 17 10.5 32.5t28.5 19.5q20 4 44 9t42.5 16.5t30.5 29t14 45.5q2 25 2 50q0 12 -1 36.5t-1 61.5q-2 39 -2 80q0 20 1.5 61.5t19.5 98.5q29 86 82 149.5t141 91.5q10 4 18 4q12 0 25.5 -10t18 -24.5t4.5 -22.5q0 -12 -6.5 -27.5t-30.5 -23.5q-84 -27 -117 -88.5 t-39 -124t-6 -109.5q0 -31 1 -62.5t1 -60.5q0 -45 -4 -84q-14 -115 -98 -161q31 -31 51 -71t26 -83q4 -31 4 -74q0 -20 -1 -43.5t-1 -46.5q0 -51 6.5 -112.5t36 -109.5t95.5 -48h10h6q23 0 34 -15.5t11 -35t-13.5 -37t-37.5 -19.5h-16q-70 0 -131.5 50.5t-84.5 128.5 q-10 35 -10 79v95q0 49 -2 98t-13 91t-37 71.5t-73 42.5q-18 4 -28.5 19.5t-10.5 32.5z" />
<glyph unicode="|" horiz-adv-x="335" d="M102 -150q2 113 4.5 253.5t4.5 294t4 313t4 312.5t4 293t4 253q0 25 17.5 38t37 13t35.5 -12.5t16 -38.5q-2 -113 -4 -253t-4 -293t-4 -312.5t-4 -313t-4 -294t-4 -253.5q0 -25 -17.5 -38t-38 -13t-36 13t-15.5 38z" />
<glyph unicode="}" horiz-adv-x="681" d="M102 1403q0 8 4.5 22.5t17.5 24.5t26 10q8 0 18 -4q92 -29 152.5 -102.5t76.5 -165.5q10 -63 12.5 -109.5t2.5 -77.5t-2 -63q0 -16 -1 -35.5t-1 -34.5q0 -12 1 -32.5t9 -43t28 -32.5l3 -6q23 -10 46 -17.5t48 -11.5q18 -4 27.5 -19.5t9.5 -33t-10.5 -32.5t-28.5 -19 q-74 -18 -97.5 -76t-24.5 -106t-1 -72q0 -49 1 -80t1 -43q0 -57 -17 -101q-31 -76 -84 -126t-129 -50h-18q-25 2 -38 19.5t-13 37t11 35t34 15.5h6h14q41 0 69 20.5t42 59.5t17 82t3 79q0 12 -1 43t-2 55.5t-1 30.5q0 39 9 64q10 45 29.5 85t49.5 71q-47 29 -73.5 74.5 t-26.5 115.5q0 61 2 108.5t2 61.5q0 61 -10 124.5t-45 121t-111 82.5q-25 8 -31 23.5t-6 27.5z" />
<glyph unicode="~" horiz-adv-x="864" d="M102 717q0 16 15 33q39 43 85 64.5t87 21.5q16 0 33 -2q18 -4 47.5 -17.5t64.5 -29t72 -30t57.5 -17.5t30.5 -3q18 0 36.5 7.5t26.5 37.5l-4 2q6 25 21.5 31t27.5 6q8 0 20.5 -3t24 -16.5t11.5 -29.5q0 -6 -2 -14q-16 -70 -66.5 -99.5t-109.5 -29.5h-15q-49 4 -97 30.5 t-94 47t-89 20.5q-2 0 -25.5 -1t-69.5 -52q-14 -16 -32 -17q-2 0 -13.5 1t-25 15.5t-15.5 27t-2 16.5z" />
<glyph unicode="&#xad;" horiz-adv-x="710" d="M102 450.5q0 20.5 13.5 37t38.5 16.5h403q25 0 38 -16.5t13 -37t-13 -37t-38 -16.5h-403q-25 0 -38.5 16.5t-13.5 37z" />
<glyph unicode="&#xc7;" horiz-adv-x="1013" d="M98 865.5q0 19.5 12.5 34.5t32.5 15h7h43q8 61 22 133t37.5 142t56.5 131t80 102q51 47 100.5 60.5t85.5 13.5q20 0 59.5 -6t91.5 -39t89 -82q12 14 23.5 16.5t15.5 2.5q14 0 27 -9q18 -10 23 -25.5t5 -23.5q0 -12 -8 -24q-37 -61 -90 -109q-16 -16 -26.5 -17t-12.5 -1 q-16 0 -33 16q-16 14 -17 26l-1 13q0 20 16 35l13 12q-41 68 -83 84t-75 16q-23 0 -61.5 -10t-88 -55t-77.5 -111q-12 -25 -21.5 -62.5t-17 -77.5t-13.5 -80t-10 -68q8 0 12 2h11q18 0 33.5 -11.5t18.5 -25t3 -21.5q0 -10 -6 -25.5t-31 -19.5q-12 -2 -25.5 -3t-27.5 -3 q-4 -47 -4 -92q0 -12 1 -46t5 -87q4 -55 15 -114.5t32.5 -114t55.5 -101.5t85 -80q61 -41 111 -41q23 0 65.5 17.5t85.5 99.5l-24 24q-16 14 -17 35l2 13q1 12 17 26q16 16 35 17l11 -1q11 -1 28 -18l98 -92q16 -14 16 -35l-1 -12q-1 -12 -17 -27q-14 -16 -32.5 -16 t-35.5 10q-31 -49 -71.5 -87t-82.5 -52t-81 -14q-16 0 -51 4t-91 41q-131 86 -192 224t-68 290q-2 51 -3 83.5t-1 43.5q0 43 4 88l-2 12h-34q-25 2 -38.5 19.5t-13.5 37zM483 -78q0 31 21.5 52.5t52.5 21.5h14q31 0 52.5 -21.5t21.5 -52.5q0 -33 -21.5 -54.5t-52.5 -21.5 h-14q-31 0 -52.5 21.5t-21.5 54.5z" />
<glyph unicode="&#xd6;" horiz-adv-x="1017" d="M98 786q0 20 13.5 37t38.5 17q8 2 24 2q0 35 1 87t4 104t8.5 102.5t17.5 83.5q4 8 6 10v4q23 47 58.5 86t81.5 65.5t87 34.5t70 8q25 0 51 -4q127 -20 190.5 -104t79.5 -201q4 -23 7.5 -59.5t4.5 -77.5t3 -79t2 -62h16q27 0 39 -15.5t12 -36.5q0 -20 -12 -35.5t-39 -15.5 h-16q-4 -88 -10.5 -173t-12.5 -169v-6q-4 -45 -8 -97t-17.5 -102.5t-40 -91.5t-75.5 -65q-47 -25 -91 -35t-83 -10q-14 0 -47 3t-81 22.5t-85 58.5q-59 63 -79.5 137t-29.5 158q-10 94 -12 186v47v47v45v47q-16 0 -24 -2q-25 0 -38.5 14.5t-13.5 34.5zM283 457 q0 -76 13 -150t50 -131t113 -72q23 -6 51 -6q4 0 23.5 1t50 8.5t56.5 25t38 45.5q18 41 24.5 86t10.5 90q6 96 12 193q6 96 8 192h-43q-25 0 -38 15.5t-13 36.5q0 20 13.5 35.5t37.5 15.5h43q2 43 2 104t-6 125q-8 63 -23.5 116.5t-46.5 84.5q-45 41 -81.5 48t-59.5 7 q-29 0 -65.5 -9t-77.5 -43t-66 -83q-10 -27 -14 -71t-5 -91t-2 -90t-1 -72v-4l-2 -4v-2q4 2 6 2t6 2h8q18 0 34.5 -8t22.5 -31q2 -6 3 -12q0 -12 -7 -25q-10 -20 -32 -22l-43 -6v-2v-85v-83v-131zM334 1536q0 31 21.5 52.5t52.5 21.5h14q31 0 52.5 -21.5t21.5 -52.5 q0 -33 -21.5 -54.5t-52.5 -21.5h-14q-31 0 -52.5 21.5t-21.5 54.5zM539 1536q0 31 21.5 52.5t51.5 21.5h15q31 0 52 -21.5t21 -52.5q0 -33 -21.5 -54.5t-51.5 -21.5h-15q-31 0 -52 21.5t-21 54.5z" />
<glyph unicode="&#xdc;" horiz-adv-x="1032" d="M96 1328.5q0 17.5 13.5 34.5t37.5 19l172 2h7q20 0 32.5 -13t12.5 -31.5t-13.5 -34t-38.5 -17.5h-10l-22 -2h-11q2 -100 4.5 -211.5t4.5 -212.5h20q25 0 38 -14t13 -33.5t-13 -35t-38 -15.5h-18q2 -53 3 -106.5t1 -106.5v-86q0 -49 6 -100.5t19.5 -99.5t39 -87 t64.5 -57.5t92 -18.5h10q61 2 101.5 36t64 84t33.5 112.5t12 113t2 84.5v51.5v51.5v43v33q0 16 2 34q-2 0 -4 -2h-4q-2 0 -4 -2q-6 -2 -12 -2q-16 0 -31.5 9.5t-22.5 27.5q-2 6 -2 12q0 12 8.5 30t30.5 20l43 4q2 102 3 218t3 216q-8 0 -14 -2q-25 0 -38 15.5t-13 33.5 t13.5 34.5t37.5 18.5h31q70 0 129 -14q25 -6 31 -20.5t6 -24.5q0 -6 -3 -18.5t-18.5 -22.5t-32.5 -10h-12t-8 2v-209q0 -113 -2 -215h18q25 0 38.5 -15.5t13.5 -34t-13.5 -32.5t-38.5 -14l-8 8h-20q-2 -68 -3 -133.5t-5 -133.5q-4 -66 -15.5 -150.5t-44.5 -159.5t-91 -123 t-148 -48h-15q-96 4 -158.5 43t-100.5 98.5t-55.5 133t-19.5 149.5q-4 84 -5 167t-3 167h-24q-25 0 -38.5 15.5t-13.5 35t13.5 33.5t38.5 14h22q-2 98 -3 209t-3 209h-23h-6q-20 0 -32.5 14.5t-12.5 32zM168 1509q0 31 22.5 53.5t53.5 22.5h12q31 0 53.5 -22.5t22.5 -53.5 q0 -33 -22.5 -55t-53.5 -22h-12q-31 0 -53.5 22.5t-22.5 54.5zM715 1507q0 31 22.5 53.5t53.5 22.5h12q31 0 53.5 -22.5t22.5 -53.5q0 -33 -22.5 -55t-53.5 -22h-12q-31 0 -53.5 22.5t-22.5 54.5z" />
<glyph unicode="&#xe7;" horiz-adv-x="849" d="M98 344q0 18 2 37q12 115 64.5 211t157.5 145q57 27 118 27q20 0 72.5 -8t118.5 -62q6 6 12 11.5t10 11.5q16 16 35 16q2 0 13.5 -1t25.5 -16.5t16 -27.5t2 -14q0 -18 -16 -35l-92 -98h-4q-16 -16 -33 -17q-4 0 -15.5 2t-24.5 15.5t-15 26t-2 16.5q0 16 14 32 q-51 39 -104 39q-10 0 -46 -5t-87.5 -48t-82 -108.5t-30.5 -131.5v-8q0 -37 12 -79t36 -76.5t55.5 -56t70.5 -21.5h6q55 4 99 30.5t79 69.5l-12 12q-14 18 -15 29.5t-1 13.5q0 18 16 35q14 14 26.5 15.5t14.5 1.5q20 0 35 -17l37 -49q18 -25 36 -47q14 -18 15.5 -30.5 t1.5 -14.5q0 -20 -14 -35q-14 -14 -25.5 -15t-13.5 -1q-18 0 -33 14q-66 -74 -132.5 -99.5t-111.5 -25.5q-47 0 -94 19q-49 18 -88 56t-64.5 87t-35 94t-9.5 80zM303 -82q0 31 21.5 52.5t52.5 21.5h14q31 0 52.5 -21.5t21.5 -52.5q0 -33 -21.5 -54.5t-52.5 -21.5h-14 q-31 0 -52.5 21.5t-21.5 54.5z" />
<glyph unicode="&#xf6;" horiz-adv-x="763" d="M98 381q0 66 13 121q0 4 4 12q18 55 51 107.5t78 86t76.5 46t50.5 12.5q39 0 92 -31l-2 -2q61 -29 104 -87t65.5 -131t24.5 -119t2 -60q0 -59 -12 -111q-16 -66 -51 -115t-83 -77.5t-82 -30.5t-42 -2q-51 0 -106 20q-61 25 -100.5 81.5t-60 126t-21.5 108.5t-1 45z M205 375q0 -41 6 -87t26.5 -91t57.5 -66q43 -25 65.5 -26t26.5 -1q37 0 68.5 16.5t55.5 49.5t32 80h2q6 35 7 63.5t1 36.5q0 43 -6 90t-23.5 92.5t-48.5 69.5q-47 37 -69.5 39t-28.5 2q-33 0 -64.5 -19.5t-57.5 -56.5t-40 -82q-8 -35 -9 -66.5t-1 -43.5zM213 848 q0 27 19.5 46t46.5 19h12q29 0 47 -19.5t18 -45.5q0 -29 -18.5 -48.5t-46.5 -19.5h-12q-27 0 -46.5 19.5t-19.5 48.5zM395 848q0 27 19.5 46t46.5 19h12q27 0 46.5 -19.5t19.5 -45.5q0 -29 -19.5 -48.5t-46.5 -19.5h-12q-27 0 -46.5 19.5t-19.5 48.5z" />
<glyph unicode="&#xfc;" horiz-adv-x="872" d="M96 696.5q0 20.5 13.5 37t37.5 16.5h138q25 0 38 -16.5t13 -37t-13.5 -37t-37.5 -16.5h-13q-2 -39 -4 -88t-2 -92q0 -20 1 -64.5t8.5 -109t27 -111.5t46 -64.5t52.5 -17.5q20 0 45 8q49 14 73 46t35 71t13 83t6 85l25 246h-12q-25 0 -38 16.5t-13 37t13 36.5t38 16h133 l-6 -2q25 0 38 -16t13 -36.5t-13.5 -37t-37.5 -16.5h-13l-24 -246q-4 -51 -5 -112.5t-22 -108.5q-35 -80 -96 -124t-143 -44h-9q-76 0 -123 34t-73.5 88t-36.5 123.5t-11 114.5t-1 62q0 53 3 112.5t5 110.5h-17q-25 0 -38 16.5t-13 37zM268 862q0 27 19.5 46.5t46.5 19.5h12 q29 0 47.5 -19.5t18.5 -46.5q0 -29 -18.5 -48t-47.5 -19h-12q-27 0 -46.5 19.5t-19.5 47.5zM451 862q0 27 19 46.5t46 19.5h12q27 0 46.5 -19.5t19.5 -46.5q0 -29 -19.5 -48t-46.5 -19h-12q-27 0 -46 19.5t-19 47.5z" />
<glyph unicode="&#x11e;" horiz-adv-x="1036" d="M94 842.5q0 19.5 13.5 35t37.5 15.5q14 -2 27 -2h25q6 72 22.5 152.5t47 156.5t78.5 137.5t120 94.5q51 20 82 22t41 2q43 0 87 -12t87 -42t76 -69l12 6q10 10 24 11q6 0 21.5 -5.5t26.5 -23.5q8 -12 8 -25q0 -8 -5 -20t-24 -25q-27 -20 -52.5 -37.5t-51.5 -35.5 q-10 -10 -25 -11q-6 0 -21.5 5.5t-25.5 23.5q-8 12 -8 25q0 8 5 20t23 25q2 2 4.5 3t4.5 3q-35 39 -80 58.5t-88 19.5q-6 0 -35 -2t-75 -28t-77 -75q-20 -33 -35.5 -76t-26.5 -90t-18.5 -93t-11.5 -85h6h11q18 0 33.5 -11t18.5 -23.5t3 -20.5q0 -10 -6 -25.5t-31 -17.5 q-10 -2 -20.5 -3t-20.5 -3q-2 -23 -2 -45v-174q0 -68 11.5 -135.5t35 -130t70.5 -109.5q31 -31 77 -52.5t97 -33t87 -12.5t52 -1q35 0 66 2q0 174 -1 275.5t-1 130.5q0 143 8 291q-23 2 -46.5 2h-45.5q-25 0 -38.5 17.5t-13.5 36t13.5 34.5t38.5 16q29 -2 57 -4h39 q29 -2 57 -4q20 -2 36.5 -14.5t16.5 -32.5v-4q-12 -172 -12 -344q0 -25 1 -136.5t1 -310.5l-8 -2q0 -16 -11.5 -29.5t-27.5 -17.5q-61 -12 -129 -12q-6 0 -46 1t-113.5 17.5t-139 48t-108.5 85.5q-53 63 -82 142t-42.5 162t-13.5 169t4 165h-20q-12 0 -23 3q-25 0 -38 16 t-13 35.5zM416 1530q0 10 8 18q25 27 53.5 40.5t54.5 13.5q10 0 21 -3q12 -2 30.5 -10t40 -17t44 -18.5t36 -11.5t19.5 -2q10 0 22.5 5t16.5 24h-2q4 16 14 20t17 4q4 0 12 -2t15 -10t7 -18q0 -4 -2 -9q-10 -43 -40.5 -61t-69.5 -18h-8q-31 4 -61 19t-59.5 27.5t-57 12.5 t-56.5 -31q-10 -12 -22 -12l-7 1q-8 1 -16 10t-9 17.5t-1 10.5z" />
<glyph unicode="&#x11f;" horiz-adv-x="753" d="M2 -199q0 18 16 35q25 27 47.5 53.5t45.5 55.5q14 16 27.5 21t21.5 5q12 0 24 -6q16 -10 21.5 -25.5t5.5 -23.5q0 -12 -8 -25l-25 -32q27 -23 58.5 -40.5t60.5 -24.5t51 -7q10 0 34 3t56 26q35 23 54.5 54.5t28.5 66t11.5 73.5t4.5 76q2 14 2 29v18q0 12 2 27 q-53 -51 -114.5 -81t-129.5 -30h-16q-49 2 -88 28.5t-66 65.5t-42 85t-17 91v27q0 39 5 92.5t24.5 109.5t52 103t86.5 74q61 31 120 31q18 0 65.5 -8.5t110.5 -61.5q-2 4 -2 12v7q0 20 15.5 32.5t35 12.5t37 -13.5t19.5 -38.5h-8q14 -184 14 -368q0 -61 -2 -123 q-2 -29 -2 -62q0 -16 1 -29.5t1 -23.5q0 -41 -4 -86t-14.5 -93t-34.5 -87q-43 -68 -102.5 -101.5t-97.5 -35.5t-48 -2q-57 0 -118.5 20.5t-117.5 67.5l-12 -13q-16 -16 -35 -16q-2 0 -13 1t-24.5 14.5t-15.5 25.5t-2 14zM166 356q0 -20 2 -43q4 -35 17.5 -69.5t36 -58 t44 -29.5t33.5 -6q23 0 49 10q47 18 87 51t71 74v-2q10 12 31 20v117q0 57 -2 117q-25 4 -37 24q-31 41 -70 61.5t-80 20.5q-2 0 -23.5 -1t-58.5 -25.5t-59 -73.5q-25 -53 -33 -101.5t-8 -85.5zM199 856q0 10 8 18q25 27 53.5 40.5t54.5 13.5q10 0 21 -2q10 -2 28.5 -10.5 t41 -17.5t45 -17.5t36 -10.5t19.5 -2q12 0 23.5 4.5t15.5 22.5l-2 2q4 14 14 18.5t16 4.5q4 0 12.5 -2.5t15.5 -10.5t7 -18q0 -4 -2 -8q-10 -43 -39.5 -60.5t-64.5 -17.5h-15q-31 2 -60.5 18.5t-58 28.5t-55.5 12q-2 0 -17 -1t-42 -32q-8 -10 -21 -10q-2 0 -9 1t-15 9.5 t-9 16.5t-1 10z" />
<glyph unicode="&#x130;" horiz-adv-x="485" d="M98 870q0 23 15.5 34t38.5 16l43 6q2 102 3 200.5t3 196.5q-16 0 -25 -2h-6q-23 0 -34 15.5t-11 32.5t13.5 33.5t37.5 18.5q39 4 78 5t78 4l-2 -3h6q20 0 32.5 -14t12.5 -32.5t-13.5 -36t-37.5 -19.5h-25l-6 -387q4 2 7 2t7 2h4q20 0 35 -16.5t15 -34.5q0 -23 -15.5 -35 t-38.5 -14q-4 -2 -8 -2h-8q-2 -170 -3 -356.5t-3 -356.5q16 0 24 2h7q20 0 32.5 -14.5t12.5 -34t-13.5 -34.5t-38.5 -17q-35 -4 -70.5 -5t-70.5 -4h-6q-23 0 -34 14.5t-11 32t13.5 35t37.5 19.5h4l4 2h4q2 168 3 352t4 352q-4 0 -11 -2l-20 -2q-4 0 -10 -2h-9 q-16 0 -30.5 15.5t-14.5 33.5zM178 1536q0 31 21.5 52.5t52.5 21.5h14q31 0 52.5 -21.5t21.5 -52.5t-21.5 -52.5t-52.5 -21.5h-14q-31 0 -52.5 21.5t-21.5 52.5z" />
<glyph unicode="&#x131;" horiz-adv-x="466" d="M106 61q0 23 15.5 36.5t38.5 17.5q8 2 14 2h8q6 0 15 2q-2 135 -3 270t-6 270h-10q-25 0 -38 16.5t-13 37t13.5 37t37.5 16.5h129q25 0 38 -16.5t13 -37t-13 -37t-38 -16.5h-12l6 -546q16 -4 27 -7l2 -4q25 -6 31 -21t6 -26q0 -8 -3.5 -21.5t-17.5 -24.5t-31 -11 q-6 0 -14 2q-47 10 -98 10q-20 0 -43 -2h-8q-16 0 -31 16.5t-15 36.5z" />
<glyph unicode="&#x15e;" horiz-adv-x="913" d="M104 297q0 16 17 31q57 51 119 94q12 8 24 8q8 0 23.5 -5t25.5 -24q6 -12 6 -24q0 -8 -4 -21.5t-22 -25.5l-23 -15q18 -35 49 -80t68 -73.5t59.5 -30.5t24.5 -2q39 0 78 39q66 70 74 128t8 85q0 63 -21 125q-31 98 -94 170t-129 143q-12 2 -22 2h-17q-10 0 -22 2 q-23 0 -36.5 14.5t-14.5 24.5t-1 12q0 14 7.5 29t25.5 21q-8 10 -15 21t-13 22q-31 53 -43.5 110.5t-12.5 104.5q0 18 3 60t31 99.5t83 98.5q45 33 86 44t74 11q16 0 49 -5t78 -28.5t82 -60.5l12 12q16 16 35 17q2 0 13 -1.5t28 -17.5q16 -16 16 -35q0 -2 -1 -13t-17 -28 l-80 -84q-16 -16 -35 -16q-2 0 -13.5 1t-25.5 17q-16 16 -16 35t12 35q-39 45 -75 54t-58 9q-25 0 -60.5 -11t-71.5 -50t-44 -98q-2 -20 -2 -39q0 -23 5 -55.5t21.5 -73.5t41 -77t50.5 -67q23 -2 44.5 -3t43.5 -1q25 0 37.5 -16t13.5 -25.5t1 -11.5q0 -16 -10.5 -32.5 t-30.5 -18.5q70 -80 120 -169t66 -200l4 11q4 -29 4 -62q0 -27 -5 -76t-29.5 -109.5t-68.5 -106.5t-110 -58q-27 -6 -53 -6q-29 0 -67.5 11t-80.5 43t-76 75t-59 90q-14 -8 -28 -8q-4 0 -16.5 2t-25 16t-13.5 24.5t-1 12.5zM373 -78q0 31 21.5 52.5t51.5 21.5h15 q31 0 52.5 -21.5t21.5 -52.5q0 -33 -21.5 -54.5t-52.5 -21.5h-15q-31 0 -52 21.5t-21 54.5z" />
<glyph unicode="&#x15f;" horiz-adv-x="851" d="M100 174q0 2 1 12.5t18 26.5q23 27 46 51.5t46 48.5q14 16 33 17q2 0 13 -1t28 -18q16 -16 16 -32q0 -2 -1 -12.5t-15 -26.5l-4 -4l-2 -5q-2 -2 -5 -4q29 -27 63 -51t73 -35q18 -4 35.5 -5t23.5 -1q18 0 39.5 4t40 18.5t22.5 43.5q2 10 2 20q0 29 -15 52.5t-45 43 t-63.5 32.5t-58.5 28q-68 39 -91.5 84t-23.5 84q0 31 11 65q12 39 38.5 65.5t60.5 42t64.5 19.5t51.5 4q16 0 33 -2q23 -4 50 -10t50 -20l12 12q6 6 15 12q16 14 36 17q20 0 35 -15q14 -14 17 -37q0 -23 -17 -36q-23 -18 -35 -35t-26 -39q-10 -18 -24.5 -21.5t-20.5 -3.5 q-14 0 -27 6q-27 18 -27 45v7q-29 18 -63 18q-10 0 -39 -4t-61.5 -29.5t-34.5 -44t-2 -20.5q0 -31 45 -56q41 -23 81 -40t76 -44q25 -16 46.5 -42.5t37 -57.5t17.5 -50.5t2 -25.5q0 -25 -10 -49q-35 -84 -87.5 -113.5t-107.5 -29.5q-10 0 -47 3t-104.5 36t-120.5 78l-11 -11 q-14 -16 -34 -16l-12 1q-13 1 -27 17q-16 16 -17 33zM330 -80q0 31 21.5 52.5t51.5 21.5h15q31 0 52.5 -21.5t21.5 -52.5q0 -33 -21.5 -54.5t-52.5 -21.5h-15q-31 0 -52 21.5t-21 54.5zM733 735l2 -2z" />
<glyph unicode="&#x2000;" horiz-adv-x="810" />
<glyph unicode="&#x2001;" horiz-adv-x="1620" />
<glyph unicode="&#x2002;" horiz-adv-x="810" />
<glyph unicode="&#x2003;" horiz-adv-x="1620" />
<glyph unicode="&#x2004;" horiz-adv-x="540" />
<glyph unicode="&#x2005;" horiz-adv-x="405" />
<glyph unicode="&#x2006;" horiz-adv-x="270" />
<glyph unicode="&#x2007;" horiz-adv-x="270" />
<glyph unicode="&#x2008;" horiz-adv-x="202" />
<glyph unicode="&#x2009;" horiz-adv-x="324" />
<glyph unicode="&#x200a;" horiz-adv-x="90" />
<glyph unicode="&#x2010;" horiz-adv-x="710" d="M102 450.5q0 20.5 13.5 37t38.5 16.5h403q25 0 38 -16.5t13 -37t-13 -37t-38 -16.5h-403q-25 0 -38.5 16.5t-13.5 37z" />
<glyph unicode="&#x2011;" horiz-adv-x="710" d="M102 450.5q0 20.5 13.5 37t38.5 16.5h403q25 0 38 -16.5t13 -37t-13 -37t-38 -16.5h-403q-25 0 -38.5 16.5t-13.5 37z" />
<glyph unicode="&#x2012;" horiz-adv-x="710" d="M102 450.5q0 20.5 13.5 37t38.5 16.5h403q25 0 38 -16.5t13 -37t-13 -37t-38 -16.5h-403q-25 0 -38.5 16.5t-13.5 37z" />
<glyph unicode="&#x2013;" horiz-adv-x="1228" d="M102 450.5q0 20.5 27.5 37t77.5 16.5h816q50 0 76.5 -16.5t26.5 -37t-26.5 -37t-76.5 -16.5h-816q-50 0 -77.5 16.5t-27.5 37z" />
<glyph unicode="&#x2014;" horiz-adv-x="2252" d="M102 450.5q0 20.5 54.5 37t155.5 16.5h1632q101 0 153.5 -16.5t52.5 -37t-52.5 -37t-153.5 -16.5h-1632q-101 0 -155.5 16.5t-54.5 37z" />
<glyph unicode="&#x2018;" d="M102 1245q0 4 2 16.5t25 24.5h2q23 12 28 28.5t5 24.5q0 16 -10 31q-8 12 -9 25q0 8 5.5 21.5t21.5 22.5t33 9q4 0 16 -1t25 -24q16 -29 19 -51t3 -33q0 -23 -8 -49t-27.5 -53t-50.5 -41q-14 -8 -26 -8q-8 0 -22.5 6t-23 21.5t-8.5 29.5z" />
<glyph unicode="&#x2019;" d="M102 1245q0 4 2 16.5t25 24.5h2q23 12 28 28.5t5 24.5q0 16 -10 31q-8 12 -9 25q0 8 5.5 21.5t21.5 22.5t33 9q4 0 16 -1t25 -24q16 -29 19 -51t3 -33q0 -23 -8 -49t-27.5 -53t-50.5 -41q-14 -8 -26 -8q-8 0 -22.5 6t-23 21.5t-8.5 29.5z" />
<glyph unicode="&#x201a;" d="M102 49q0 4 2 16.5t25 24.5h2q23 12 28 28.5t5 24.5q0 16 -10 31q-8 12 -9 25q0 8 5.5 21t21.5 22.5t33 9.5q4 0 16 -1t25 -24q16 -29 19 -51t3 -33q0 -23 -8 -49t-27.5 -53t-50.5 -41q-14 -8 -26 -8q-8 0 -22.5 6t-23 21.5t-8.5 29.5z" />
<glyph unicode="&#x201c;" horiz-adv-x="522" d="M102 1245q0 4 2 16.5t25 24.5t28 28.5t5 26.5q0 15 -8 29q-8 12 -9 25q0 8 5.5 21.5t21.5 22.5t33 9q4 0 16 -1t25 -24q18 -29 20 -50t2 -30q0 -25 -7 -52t-26.5 -54t-50.5 -41q-14 -8 -26 -8q-8 0 -22.5 6t-24 21.5t-9.5 29.5zM252 1245q0 4 2 16.5t25 24.5t27.5 28.5 t4.5 26.5q0 15 -8 29q-8 12 -8 25q0 8 5 21.5t20.5 22.5t31.5 9q4 0 16.5 -1t24.5 -24q18 -29 20.5 -50t2.5 -30q0 -25 -7.5 -52t-27 -54t-49.5 -41q-14 -8 -27 -8q-8 0 -21.5 6t-22.5 21.5t-9 29.5z" />
<glyph unicode="&#x201d;" horiz-adv-x="522" d="M102 1245q0 4 2 16.5t25 24.5t28 28.5t5 26.5q0 15 -8 29q-8 12 -9 25q0 8 5.5 21.5t21.5 22.5t33 9q4 0 16 -1t25 -24q18 -29 20 -50t2 -30q0 -25 -7 -52t-26.5 -54t-50.5 -41q-14 -8 -26 -8q-8 0 -22.5 6t-24 21.5t-9.5 29.5zM252 1245q0 4 2 16.5t25 24.5t27.5 28.5 t4.5 26.5q0 15 -8 29q-8 12 -8 25q0 8 5 21.5t20.5 22.5t31.5 9q4 0 16.5 -1t24.5 -24q18 -29 20.5 -50t2.5 -30q0 -25 -7.5 -52t-27 -54t-49.5 -41q-14 -8 -27 -8q-8 0 -21.5 6t-22.5 21.5t-9 29.5z" />
<glyph unicode="&#x201e;" horiz-adv-x="548" d="M102 47q0 4 2 16.5t25 24.5t28 28.5t5 26.5q0 15 -8 29q-8 12 -9 25q0 8 5.5 21t21.5 22.5t33 9.5q4 0 16 -1t25 -24q18 -29 20 -50t2 -30q0 -25 -7 -52t-26.5 -54t-50.5 -41q-14 -8 -26 -8q-8 0 -22.5 6t-24 21.5t-9.5 29.5zM252 47q0 4 2 16.5t25 24.5t27.5 28.5 t4.5 26.5q0 15 -8 29q-8 12 -8 25q0 8 5 21t20.5 22.5t31.5 9.5q4 0 16.5 -1t24.5 -24q18 -29 20.5 -50t2.5 -30q0 -25 -7.5 -52t-27 -54t-49.5 -41q-14 -8 -27 -8q-8 0 -21.5 6t-22.5 21.5t-9 29.5z" />
<glyph unicode="&#x202f;" horiz-adv-x="324" />
<glyph unicode="&#x205f;" horiz-adv-x="405" />
<glyph unicode="&#x25fc;" horiz-adv-x="768" d="M0 0v768h768v-768h-768z" />
</font>
</defs>
</svg>
